<?xml version="1.0" encoding="UTF-8" standalone="no"?>
<svg
   width="3435.4758"
   height="1945.908"
   viewBox="0 0 3435.4758 1945.908"
   version="1.1"
   id="svg3"
   sodipodi:docname="trace (17).svg"
   inkscape:version="1.4.2 (ebf0e940d0, 2025-05-08)"
   xmlns:inkscape="http://www.inkscape.org/namespaces/inkscape"
   xmlns:sodipodi="http://sodipodi.sourceforge.net/DTD/sodipodi-0.dtd"
   xmlns="http://www.w3.org/2000/svg"
   xmlns:svg="http://www.w3.org/2000/svg">
  <defs
     id="defs3" />
  <sodipodi:namedview
     id="namedview3"
     pagecolor="#ffffff"
     bordercolor="#000000"
     borderopacity="0.25"
     inkscape:showpageshadow="2"
     inkscape:pageopacity="0.0"
     inkscape:pagecheckerboard="0"
     inkscape:deskcolor="#d1d1d1"
     inkscape:zoom="0.24153246"
     inkscape:cx="1716.1254"
     inkscape:cy="972.9541"
     inkscape:window-width="1280"
     inkscape:window-height="730"
     inkscape:window-x="0"
     inkscape:window-y="0"
     inkscape:window-maximized="1"
     inkscape:current-layer="svg3"
     showguides="false" />
  <path
     id="path101"
     style="clip-rule:evenodd;display:inline;fill:#79abaa;fill-rule:evenodd;stroke-width:4.00958;image-rendering:optimizeQuality;shape-rendering:geometricPrecision;text-rendering:geometricPrecision"
     d="M 460.97961,0 C 288.24441,0 -1.0028854,202.22268 0.00261457,465.23775 L 3.9765146,1504.9431 c 0.6764,177.0068 217.1610954,441.3379 453.0291954,440.9645 l 2555.24359,-4.0456 c 255.4795,-0.4045 423.2266,-180.6392 423.2266,-489.511 V 404.55456 C 3435.4759,249.02148 3208.7253,0 2964.562,0 Z" />
  <path
     d="m 2858.1563,644.91602 c -29.7186,1.24389 -59.4809,2.03057 -89.1583,4.12695 l -227.4726,600.93163 85.8105,-1.2598 64.2403,-178.7988 248.6836,-3.7928 69.8496,177.293 86.9902,-0.7399 z m 58.0859,354.5 -202.541,4.46098 100.9508,-276.98617 z"
     style="display:inline"
     id="path7"
     sodipodi:nodetypes="ccccccccccccc" />
  <path
     d="m 2476.0254,649.41602 -77.5,2.18554 c -3.326,3.19298 5.1052,368.21544 -6.0176,424.31444 -19.1623,96.6313 -103.6609,111.0534 -152.7832,110.9824 -35.1991,-0.052 -138.0947,-10.9557 -147.0976,-135.7519 -1.7933,-133.05645 -1.1016,-266.15805 -1.1016,-399.23048 h -85.125 l 3.4902,422.99998 c 1.4217,172.3183 184.9617,183.4494 232.6348,183.4707 86.6682,0.039 208.074,-27.9167 230.6035,-179.4707 z"
     id="path8" />
  <path
     d="m 541.85,690.961 c -22.542,2.785 -45.593,9.772 -66.249,20.081 -23.959,11.956 -39.868,26.419 -52.377,47.616 -10.973,18.593 -16.118,34.059 -17.467,52.511 -0.678,9.268 -0.576,10.791 0.741,11.025 0.84,0.15 17.438,0.261 36.884,0.247 l 35.357,-0.025 2.19,-7.5 c 7.068,-24.212 22.18,-39.765 47.718,-49.113 12.649,-4.63 23.926,-6.804 39.067,-7.533 39.19,-1.887 73.757,10.244 86.647,30.408 9.505,14.87 11.231,38.132 4.01,54.056 -6.455,14.234 -16.576,24.337 -31.872,31.815 -10.825,5.291 -24.568,10.175 -36.112,12.831 -11.687,2.69 -25.549,3.564 -56.992,3.595 l -30.708,0.031 -0.691,7.381 c -0.699,7.451 -2.184,62.92 -1.722,64.29 0.137,0.406 15.595,0.609 34.351,0.451 29.292,-0.248 36.237,-0.01 49.25,1.683 22.437,2.919 42.04,9.194 61.271,19.613 7.185,3.893 10.979,6.925 19.887,15.901 16.084,16.206 20.995,26.606 22.091,46.787 0.925,17.025 -2.268,33.488 -8.971,46.266 -18.106,34.511 -88.83,50.652 -159.628,36.433 -20.385,-4.095 -37.381,-10.761 -49.5,-19.416 -17.446,-12.459 -24.457,-28.43 -26.985,-61.479 -0.358,-4.675 -0.894,-9.513 -1.191,-10.75 l -0.541,-2.25 h -37.985 -37.985 l 0.644,9.75 c 2.33,35.29 3.267,42.063 7.922,57.25 3.256,10.62 12.434,28.556 18.621,36.387 9.61,12.163 19.747,21.929 34.081,32.833 24.351,18.525 60.704,31.939 95.622,35.284 20.159,1.931 59.456,1.935 77.614,0.01 36.36,-3.858 74.142,-14.547 96.12,-27.192 19.298,-11.102 42.411,-32.643 52.459,-48.89 16.011,-25.888 22.112,-50.601 20.075,-81.319 -2.285,-34.453 -16.259,-66.551 -37.823,-86.878 -15.487,-14.599 -31.438,-25.73 -47.821,-33.37 -4.58,-2.136 -8.327,-4.065 -8.327,-4.287 0,-0.222 2.882,-2.016 6.405,-3.986 18.171,-10.161 39.556,-32.586 49.019,-51.4 4.279,-8.507 8.347,-20.391 10.053,-29.365 1.847,-9.714 2.109,-31.396 0.502,-41.459 -3.933,-24.618 -14.963,-46.216 -32.947,-64.512 -6.229,-6.34 -22.364,-18.856 -24.305,-18.856 -0.505,0 -2.143,-0.872 -3.64,-1.938 -2.399,-1.708 -20.34,-9.788 -28.587,-12.875 -5.042,-1.887 -27.47,-7.265 -37,-8.872 -10.578,-1.784 -59.894,-2.664 -71.175,-1.27"
     id="path5" />
  <path
     d="m 967.886,702.669 -176.139,0.253 -0.572,3.247 c -0.315,1.786 -0.877,16.41 -1.249,32.497 l -0.678,29.25 h 35.25 35.25 l -0.57,3.25 c -0.314,1.788 -0.668,31.6 -0.787,66.25 -0.12,34.65 -0.42,68.287 -0.667,74.75 l -0.451,11.75 H 809.042 760.81 l -0.655,6.25 c -1.16,11.068 -3.689,61.845 -3.126,62.756 0.299,0.485 2.446,0.723 4.77,0.531 11.065,-0.919 95.982,-1.757 95.494,-0.943 -0.89,1.487 -2.289,174.5 -1.844,228.058 l 0.076,9.153 39.932,0.142 39.932,0.143 0.529,-4.295 c 0.29,-2.362 0.993,-64.37 1.562,-137.795 0.568,-73.425 1.264,-162.975 1.546,-199 0.283,-36.025 0.563,-77.543 0.623,-92.263 0.076,-18.751 0.448,-26.977 1.242,-27.478 0.624,-0.393 91.992,-0.724 203.04,-0.737 l 201.907,-0.022 -0.662,40.5 c -0.365,22.275 -0.758,74.925 -0.876,117 -0.258,92.756 -0.887,127.5 -2.31,127.5 -0.57,0 -4.547,2.7 -8.839,6 -19.196,14.762 -35.26,22.415 -58.126,27.692 -8.864,2.046 -12.443,2.3 -31.5,2.238 -20.371,-0.066 -21.973,-0.212 -30.5,-2.773 -8.691,-2.611 -21.876,-7.799 -26,-10.231 -16.295,-9.609 -26.492,-18.756 -34.381,-30.841 -6.359,-9.742 -9.776,-18.52 -11.611,-29.835 -4.401,-27.135 0.744,-53.646 14.19,-73.123 17.729,-25.681 54.462,-43.627 89.302,-43.627 13.172,0 23.898,1.919 42,7.513 8.235,2.544 11.257,2.798 13.5,1.133 1.893,-1.405 2.01,-2.764 2.19,-25.315 0.105,-13.107 -0.071,-27.951 -0.39,-32.986 l -0.582,-9.155 -6.609,-2.017 c -6.162,-1.881 -12.884,-3.408 -27.609,-6.274 -8.795,-1.712 -47.493,-2.35 -58.142,-0.958 -11.47,1.499 -29.852,5.588 -39.358,8.756 -8.978,2.993 -26.258,11.676 -36.263,18.223 -9.409,6.158 -25.984,19.521 -31.887,25.707 -17.6229,19.65556 -26.4016,36.2091 -33.87,58.447 -9.683,28.96 -10.35,77.092 -1.447,104.426 2.757,8.463 7.333,20.19 9.562,24.5 7.925,15.33 25.292,35.786 41.063,48.369 35.013,27.937 77.056,41.185 130.342,41.072 34.944,-0.074 58.918,-5.454 91.371,-20.505 2.404,-1.115 4.509,-1.889 4.678,-1.72 0.169,0.169 0.405,19.427 0.525,42.796 0.119,23.368 0.402,43.408 0.628,44.533 0.916,4.552 2.556,4.743 40.081,4.691 39.838,-0.056 38.688,0.165 39.632,-7.601 0.276,-2.274 0.748,-78.385 1.049,-169.135 0.3,-90.75 0.756,-182.325 1.014,-203.5 0.257,-21.175 0.48,-48.197 0.495,-60.048 l 0.027,-21.549 41.25,0.129 c 22.688,0.071 45.583,-0.071 50.88,-0.315 l 9.629,-0.445 0.153,-32.386 0.153,-32.386 h -190.951 c -105.023,0 -191.55,-0.112 -192.282,-0.25 -0.733,-0.138 -80.595,-0.136 -177.471,0.003"
     id="path6"
     sodipodi:nodetypes="cccccccccccccscccsccccccccccccsccsccccsscsccccsccccccccsssccccccscsccccssc" />
</svg>
