<?xml version="1.0" encoding="UTF-8" standalone="no"?>
<svg
   width="1783.3906"
   height="1781.6069"
   viewBox="0 0 1783.3906 1781.6069"
   version="1.1"
   id="svg2"
   sodipodi:docname="trace (22).svg"
   inkscape:version="1.4.3 (0d15f75042, 2025-12-25)"
   xmlns:inkscape="http://www.inkscape.org/namespaces/inkscape"
   xmlns:sodipodi="http://sodipodi.sourceforge.net/DTD/sodipodi-0.dtd"
   xmlns="http://www.w3.org/2000/svg"
   xmlns:svg="http://www.w3.org/2000/svg">
  <defs
     id="defs2" />
  <sodipodi:namedview
     id="namedview2"
     pagecolor="#ffffff"
     bordercolor="#000000"
     borderopacity="0.25"
     inkscape:showpageshadow="2"
     inkscape:pageopacity="0.0"
     inkscape:pagecheckerboard="0"
     inkscape:deskcolor="#d1d1d1"
     inkscape:zoom="0.26380672"
     inkscape:cx="892.69903"
     inkscape:cy="890.8037"
     inkscape:window-width="1280"
     inkscape:window-height="730"
     inkscape:window-x="0"
     inkscape:window-y="0"
     inkscape:window-maximized="1"
     inkscape:current-layer="svg2" />
  <path
     d="M 891.69531,0 C 400.28488,1.0460343e-4 4.4128752e-4,399.91864 0,890.80273 -6.2887559e-4,1381.7187 400.31529,1781.6073 891.69531,1781.6074 1383.1062,1781.6073 1783.3912,1381.6879 1783.3906,890.80273 1783.3902,399.88721 1383.0743,1.1560693e-4 891.69531,0 Z"
     style="fill:#e91b24;fill-rule:evenodd;stroke-width:6.12953"
     id="path4"
     sodipodi:nodetypes="sssss" />
  <path
     style="font-weight:bold;font-size:85.3333px;line-height:0;font-family:'Myriad Pro';-inkscape-font-specification:'Myriad Pro Bold';letter-spacing:0.52px;fill:#ffffff;fill-rule:evenodd;stroke-width:34.6692"
     d="m 686.65551,720.92501 h 83.6328 V 351.12019 h -71.11635 l -98.42496,45.51448 14.22331,64.85803 70.54731,-33.56687 h 1.13789 z M 955.81314,531.47117 c -40.3941,17.63683 -65.99598,48.35908 -65.99598,92.73567 0,50.06588 43.2387,102.97636 137.11224,102.97636 85.9085,0 142.2326,-45.5144 142.2326,-112.6482 0,-47.2212 -31.8601,-77.94346 -68.2716,-91.59779 v -1.70679 c 36.9804,-18.20581 54.0484,-49.49697 54.0484,-81.35704 0,-44.9455 -35.8427,-95.01138 -122.3201,-95.01138 -73.96096,0 -130.28502,41.53192 -130.28502,104.11424 0,32.42905 17.63682,62.58233 53.47946,81.35704 z m 74.52986,135.97438 c -32.42904,0 -52.91054,-25.03297 -52.34164,-51.77267 0,-26.73976 16.49902,-47.22126 44.94554,-55.18625 33.5669,9.10287 58.0309,28.44649 58.0309,60.87554 0,26.17079 -20.4815,46.08338 -50.6348,46.08338 z m -1.7068,-263.98371 c 31.8601,0 44.9455,22.7572 44.9455,46.08331 0,22.75721 -17.6368,40.96301 -37.5494,46.65229 -29.5844,-9.10286 -51.77268,-25.0329 -51.77268,-50.06587 0,-22.75721 14.79222,-42.66973 44.37658,-42.66973 z"
     id="text69"
     aria-label="18" />
  <path
     d="m 326.5,939.33818 h 24.9678 v -43.81779 h 7.4408 c 10.417,0.16529 15.2122,3.80306 18.3538,17.85782 3.1418,13.72405 5.9526,22.65296 7.6063,25.95997 h 25.7946 c -2.1497,-4.29911 -5.4566,-18.84992 -8.9289,-31.58187 -2.811,-10.25172 -7.1102,-17.52711 -14.8815,-20.66878 v -0.49605 c 9.5902,-3.47233 19.6765,-13.228 19.6765,-27.28275 0,-10.2517 -3.6376,-18.18851 -10.417,-23.47972 -7.9369,-6.28329 -19.5113,-8.76355 -36.0463,-8.76355 -13.5588,0 -25.464,0.9921 -33.5661,2.31489 z m 24.9678,-92.59606 c 1.8189,-0.49605 5.2913,-0.82676 11.4092,-0.82676 11.5746,0 18.5193,5.29121 18.5193,15.37757 0,9.75564 -7.4407,16.03896 -20.0075,16.03896 h -9.921 z m 140.3978,24.96787 h -41.0067 v -23.14901 h 43.4869 V 827.8922 h -68.6202 v 111.44598 h 70.93521 V 918.6694 H 450.8589 v -26.456 h 41.0067 z m 18.70013,62.33697 c 6.28337,3.47236 18.84992,6.94471 31.58194,6.94471 30.58985,0 44.80983,-15.87361 44.80983,-34.55817 0,-15.70825 -9.09419,-25.95997 -28.77092,-33.23536 -14.55075,-5.45656 -20.66865,-8.5982 -20.66865,-15.70827 0,-5.6219 5.29108,-10.74775 16.20419,-10.74775 10.74783,0 18.84992,3.14165 23.14909,5.29121 l 5.62184,-20.17272 c -6.61394,-3.14165 -15.70814,-5.6219 -28.44016,-5.6219 -26.12539,0 -42.16429,14.38546 -42.16429,33.40072 0,16.2043 12.23597,26.456 30.75512,33.07002 13.39337,4.6298 18.68464,8.5982 18.68464,15.54291 0,7.27539 -6.11809,12.07055 -17.69253,12.07055 -10.74783,0 -21.33017,-3.47235 -27.94412,-6.9447 z m 116.25679,5.29122 h 25.13329 v -90.28115 h 30.4244 V 827.8922 h -85.65129 v 21.16483 h 30.0936 z m 69.9587,0 h 24.96787 v -43.81779 h 7.44075 c 10.41706,0.16529 15.2122,3.80306 18.35387,17.85782 3.14165,13.72405 5.95261,22.65296 7.6061,25.95997 h 25.79461 c -2.14955,-4.29911 -5.45656,-18.84992 -8.92891,-31.58187 -2.81094,-10.25172 -7.11005,-17.52711 -14.8815,-20.66878 v -0.49605 c 9.59031,-3.47233 19.67666,-13.228 19.67666,-27.28275 0,-10.2517 -3.6377,-18.18851 -10.41706,-23.47972 -7.93681,-6.28329 -19.51131,-8.76355 -36.04632,-8.76355 -13.55871,0 -25.4639,0.9921 -33.56607,2.31489 z m 24.96787,-92.59606 c 1.81885,-0.49605 5.29121,-0.82676 11.40916,-0.82676 11.5745,0 18.51921,5.29121 18.51921,15.37757 0,9.75564 -7.44076,16.03896 -20.00737,16.03896 h -9.921 z m 74.25776,-18.84992 v 111.44598 h 25.13321 V 827.8922 Z m 126.01225,88.62765 c -5.12585,2.14955 -13.39335,3.6377 -21.16481,3.6377 -22.32227,0 -35.55027,-14.05476 -35.55027,-36.37701 0,-24.80252 15.54291,-36.87308 35.38493,-36.87308 9.09425,0 16.2043,1.98421 21.1648,4.13377 l 5.2912,-19.84202 c -4.46444,-2.48025 -14.38545,-4.9605 -27.4481,-4.9605 -33.73144,0 -60.84885,20.99946 -60.84885,59.02998 0,31.74722 19.84202,55.88833 58.36859,55.88833 13.39335,0 23.97577,-2.6456 28.44021,-4.79515 z m 45.3213,22.81833 h 25.13321 V 849.05703 H 1022.898 V 827.8922 h -85.65131 v 21.16483 h 30.09371 z m 136.2641,-67.62819 h -41.0069 v -23.14901 h 43.4871 V 827.8922 h -68.6203 v 111.44598 h 70.9352 V 918.6694 h -45.802 v -26.456 h 41.0069 z m 22.9992,67.13214 c 6.1179,0.82673 15.5429,1.65349 28.6055,1.65349 21.8262,0 39.8494,-4.6298 51.5893,-14.38546 10.5824,-9.09425 18.3538,-23.81041 18.3538,-45.14058 0,-19.67665 -7.2754,-33.4007 -18.8499,-41.9989 -10.5824,-7.93681 -24.4718,-11.90522 -45.802,-11.90522 -12.5666,0 -24.6371,0.9921 -33.8967,2.48026 z m 25.1332,-91.43862 c 2.1495,-0.49605 5.9526,-0.9921 11.4092,-0.9921 21.8262,0 35.3849,12.23592 35.3849,35.38493 0,26.62136 -15.0469,39.18797 -38.0306,39.02263 -2.9763,0 -6.614,0 -8.7635,-0.49606 z m 140.5784,91.93467 h 25.1332 v -90.28115 h 30.4244 V 827.8922 h -85.6513 v 21.16483 h 30.0937 z M 1406.588,825.908 c -32.7393,0 -54.2349,24.96787 -54.2349,58.36859 0,31.91258 19.5114,56.88043 52.416,56.88043 32.7393,0 54.7309,-21.99157 54.7309,-58.69929 0,-30.92045 -18.6846,-56.54973 -52.912,-56.54973 z m -0.4961,20.00736 c 17.3618,0 26.7867,17.19643 26.7867,37.36913 0,21.66086 -9.7556,37.86516 -26.7867,37.86516 -16.8657,0 -27.1174,-15.37754 -27.1174,-37.36911 0,-21.66086 9.921,-37.86518 27.1174,-37.86518 z"
     id="text70"
     style="font-weight:bold;font-size:85.3333px;line-height:0;font-family:'Myriad Pro';-inkscape-font-specification:'Myriad Pro Bold';letter-spacing:0.52px;fill:#ffffff;fill-rule:evenodd;stroke-width:10.076"
     aria-label="RESTRICTED TO" />
  <path
     d="m 324.484,1112.5235 h 24.8528 v -39.8304 c 2.3043,0.4938 5.2668,0.6584 8.5587,0.6584 14.8129,0 27.4861,-3.7855 36.0448,-11.6858 6.748,-6.0897 10.2043,-15.4713 10.2043,-26.3341 0,-10.8628 -4.6084,-20.0797 -11.8503,-25.6757 -7.4065,-5.9252 -18.4338,-8.8878 -33.9051,-8.8878 -15.3067,0 -26.1695,0.9875 -33.9052,2.3042 z m 24.8528,-91.8402 c 1.8105,-0.4938 5.2668,-0.823 10.2045,-0.823 12.6733,0 19.7506,6.0898 19.7506,16.2943 0,11.192 -8.2295,17.9401 -21.5611,17.9401 -3.7854,0 -6.2543,-0.1645 -8.394,-0.6584 z m 137.7757,24.5236 h -40.8179 v -23.0423 h 43.2867 v -20.5735 h -68.3042 v 110.9324 h 70.6083 V 1091.95 h -45.5908 v -26.3342 h 40.8179 z m 22.8931,67.3166 h 24.85299 v -43.6159 h 7.40647 c 10.36887,0.1645 15.14199,3.7855 18.2691,17.7755 3.1273,13.6609 5.92517,22.5486 7.57119,25.8404 h 25.67576 c -2.13978,-4.2793 -5.43141,-18.7631 -8.88777,-31.4364 -2.79806,-10.2044 -7.07742,-17.4463 -14.81294,-20.5735 v -0.4937 c 9.54606,-3.4564 19.58587,-13.1671 19.58587,-27.1571 0,-10.2045 -3.62087,-18.1047 -10.36905,-23.3715 -7.90024,-6.2544 -19.42135,-8.7232 -35.88011,-8.7232 -13.49616,0 -25.34652,0.9875 -33.41151,2.3043 z m 24.85299,-92.1694 c 1.81034,-0.4938 5.2667,-0.8229 11.35659,-0.8229 11.52111,0 18.43381,5.2668 18.43381,15.3066 0,9.7108 -7.40647,15.9651 -19.91511,15.9651 h -9.87529 z m 69.47153,86.9025 c 6.25441,3.4564 18.76305,6.9127 31.43641,6.9127 30.44888,0 44.60334,-15.8004 44.60334,-34.3989 0,-15.6358 -9.05229,-25.8403 -28.63835,-33.0822 -14.4837,-5.4314 -20.5734,-8.5586 -20.5734,-15.6359 0,-5.596 5.2667,-10.6982 16.12952,-10.6982 10.6983,0 18.76306,3.1272 23.04241,5.2668 l 5.59594,-20.0797 c -6.58347,-3.1272 -15.63575,-5.59604 -28.30911,-5.59604 -26.005,0 -41.96999,14.31914 -41.96999,33.24684 0,16.1296 12.17959,26.3341 30.6134,32.9176 13.33165,4.6085 18.59854,8.5586 18.59854,15.4713 0,7.2419 -6.0899,12.0149 -17.61101,12.0149 -10.69829,0 -21.23188,-3.4563 -27.81534,-6.9127 z M 747.37286,999.616 c -32.58844,0 -53.98496,24.8528 -53.98496,58.0996 0,31.7655 19.42146,56.6183 52.1745,56.6183 32.58845,0 54.47868,-21.8902 54.47868,-58.4288 0,-30.7779 -18.59846,-56.2891 -52.66822,-56.2891 z m -0.49374,19.9152 c 17.28174,0 26.66327,17.1171 26.66327,37.1969 0,21.561 -9.71071,37.6907 -26.66327,37.6907 -16.788,0 -26.99248,-15.3067 -26.99248,-37.197 0,-21.561 9.8753,-37.6906 26.99248,-37.6906 z m 93.66622,92.9923 v -33.4114 c 0,-18.1047 -0.32916,-33.7406 -1.15211,-48.5535 h 0.65835 c 5.26683,13.0024 12.67329,27.3216 19.25682,39.1719 l 23.70068,42.793 h 26.33411 v -110.9324 h -23.04234 v 32.2592 c 0,16.788 0.49376,31.7655 1.97506,46.4139 h -0.32918 c -5.10223,-12.5087 -11.52117,-26.3341 -18.10469,-38.0199 L 846.7997,1001.5911 H 817.503 v 110.9324 z m 87.24725,-5.2669 c 6.25435,3.4564 18.76305,6.9127 31.43633,6.9127 30.44881,0 44.60338,-15.8004 44.60338,-34.3989 0,-15.6359 -9.05235,-25.8403 -28.63833,-33.0822 -14.48376,-5.4314 -20.57351,-8.5586 -20.57351,-15.6359 0,-5.596 5.26681,-10.6982 16.12963,-10.6982 10.69824,0 18.76305,3.1272 23.04234,5.2668 l 5.59599,-20.0797 c -6.58352,-3.1272 -15.63587,-5.59604 -28.30915,-5.59604 -26.00492,0 -41.96997,14.31914 -41.96997,33.24684 0,16.1296 12.17951,26.3341 30.61339,32.9176 13.33164,4.6085 18.59845,8.5586 18.59845,15.4713 0,7.2419 -6.08976,12.0149 -17.61093,12.0149 -10.69822,0 -21.23187,-3.4563 -27.8154,-6.9127 z m 186.01551,-23.2069 8.5586,28.4738 h 27.1571 l -34.5635,-110.9324 h -32.9177 l -33.7405,110.9324 h 25.8403 l 7.9002,-28.4738 z m -28.1445,-18.763 6.5835,-23.5361 c 1.8105,-6.419 3.4564,-14.813 5.1022,-21.3965 h 0.3292 c 1.6459,6.5835 3.6209,14.8129 5.596,21.3965 l 6.9127,23.5361 z m 168.06,-16.2943 h -41.3116 v 19.586 h 17.1171 v 23.3715 c -1.975,0.823 -6.5835,1.4813 -12.1795,1.4813 -20.5735,0 -35.0573,-13.3316 -35.0573,-36.3739 0,-24.1945 15.9651,-35.8803 36.8678,-35.8803 12.1795,0 19.586,1.9751 25.6757,4.7731 l 5.2668,-20.2443 c -5.4314,-2.4689 -16.4588,-5.2669 -30.7779,-5.2669 -36.374,0 -63.2019,21.0673 -63.3665,57.935 0,16.2943 5.596,30.778 15.6359,40.4887 10.2045,9.7107 24.8528,14.813 45.0972,14.813 14.6483,0 29.2966,-3.621 37.0323,-6.2544 z m 86.5886,-3.7855 h -40.8179 v -23.0423 h 43.2867 v -20.5735 h -68.304 v 110.9324 h 70.6083 v -20.5736 h -45.591 v -26.3341 h 40.8179 z m 22.8933,66.8228 c 6.0897,0.8229 15.4712,1.6459 28.4737,1.6459 21.7256,0 39.6658,-4.6085 51.3515,-14.3192 10.5336,-9.0524 18.2693,-23.7007 18.2693,-44.9325 0,-19.5861 -7.2419,-33.2469 -18.7631,-41.8054 -10.5336,-7.9003 -24.359,-11.8504 -45.5909,-11.8504 -12.5087,0 -24.5236,0.9875 -33.7405,2.4688 z m 25.0173,-91.0172 c 2.1397,-0.4938 5.9252,-0.9876 11.3566,-0.9876 21.7257,0 35.2219,12.1795 35.2219,35.2219 0,26.4987 -14.9775,39.0074 -37.8553,38.8428 -2.9626,0 -6.5835,0 -8.7232,-0.4938 z"
     id="text71"
     style="font-weight:bold;font-size:85.3333px;line-height:0;font-family:'Myriad Pro';-inkscape-font-specification:'Myriad Pro Bold';letter-spacing:0.52px;fill:#ffffff;fill-rule:evenodd;stroke-width:10.0296"
     aria-label="PERSONS AGED" />
  <path
     d="m 226.77857,1285.7336 h 24.30895 v -107.4885 h -20.67088 l -28.60849,13.2294 4.13417,18.8518 20.50551,-9.7567 h 0.33074 z m 78.23415,-55.0672 c -11.74105,5.1264 -19.18257,14.0562 -19.18257,26.9549 0,14.5522 12.56789,29.9314 39.85345,29.9314 24.97042,0 41.34175,-13.2294 41.34175,-32.7427 0,-13.7254 -9.26055,-22.6553 -19.84404,-26.6241 v -0.4961 c 10.74885,-5.2917 15.70986,-14.3869 15.70986,-23.6475 0,-13.064 -10.41812,-27.6162 -35.5539,-27.6162 -21.49771,0 -37.86905,12.0717 -37.86905,30.2621 0,9.4259 5.12638,18.1904 15.5445,23.6475 z m 21.66308,39.5227 c -9.42592,0 -15.37913,-7.2761 -15.21376,-15.0484 0,-7.7722 4.79564,-13.7254 13.06399,-16.0406 9.75665,2.6459 16.86743,8.2684 16.86743,17.6943 0,7.6069 -5.95321,13.3947 -14.71766,13.3947 z m -0.4961,-76.7302 c 9.26055,0 13.06399,6.6146 13.06399,13.3947 0,6.6147 -5.12637,11.9064 -10.91422,13.5601 -8.59908,-2.6459 -15.0484,-7.2762 -15.0484,-14.5523 0,-6.6147 4.29955,-12.4025 12.89863,-12.4025 z m 136.78937,92.2747 v -46.4681 l 36.71148,-64.9892 h -28.27776 l -11.24496,26.7894 c -3.30734,7.9377 -5.95321,14.387 -8.43372,21.3324 h -0.33073 c -2.64587,-7.2762 -5.12638,-13.2294 -8.59908,-21.3324 l -11.24496,-26.7894 h -28.93923 l 35.22318,65.816 v 45.6413 z m 113.12671,-67.6351 h -41.01102 v -23.1513 h 43.49152 v -20.6709 h -68.62731 v 111.4573 h 70.94245 v -20.6708 h -45.80666 v -26.4588 h 41.01102 z m 80.88003,39.0267 8.59908,28.6084 h 27.28556 l -34.72707,-111.4573 h -33.0734 l -33.90024,111.4573 h 25.96262 l 7.93762,-28.6084 z m -28.27776,-18.8519 6.61468,-23.6475 c 1.81904,-6.4493 3.47271,-14.883 5.12638,-21.4977 h 0.33073 c 1.65367,6.6147 3.63808,14.8831 5.62248,21.4977 l 6.94542,23.6475 z m 79.8878,47.4603 h 24.97042 v -43.8222 h 7.44152 c 10.41812,0.1654 15.21376,3.8034 18.35573,17.8596 3.14198,13.7255 5.95322,22.6553 7.60689,25.9626 h 25.79725 c -2.14977,-4.2995 -5.45711,-18.8518 -8.92982,-31.5851 -2.81124,-10.2527 -7.11078,-17.5289 -14.88303,-20.6708 v -0.4961 c 9.59129,-3.4727 19.67867,-13.2294 19.67867,-27.2856 0,-10.2527 -3.63807,-18.1904 -10.41812,-23.4821 -7.93761,-6.2839 -19.5133,-8.7645 -36.05,-8.7645 -13.5601,0 -25.46652,0.9922 -33.56951,2.3152 z m 24.97042,-92.6055 c 1.81904,-0.4961 5.29174,-0.8268 11.41032,-0.8268 11.57569,0 18.52111,5.2917 18.52111,15.3791 0,9.7567 -7.44152,16.0406 -20.00941,16.0406 h -9.92202 z m 69.80041,87.3138 c 6.28395,3.4727 18.85184,6.9454 31.5851,6.9454 30.5929,0 44.81446,-15.8752 44.81446,-34.5617 0,-15.7099 -9.09518,-25.9626 -28.77386,-33.2388 -14.55229,-5.4571 -20.67087,-8.599 -20.67087,-15.7098 0,-5.6225 5.29174,-10.7489 16.20596,-10.7489 10.74886,0 18.85184,3.142 23.15138,5.2918 l 5.62248,-20.1748 c -6.61468,-3.142 -15.70986,-5.6225 -28.44312,-5.6225 -26.12799,0 -42.16859,14.3869 -42.16859,33.4041 0,16.206 12.23716,26.4588 30.75826,33.0734 13.39473,4.6303 18.68647,8.5991 18.68647,15.5445 0,7.2762 -6.11857,12.0718 -17.69426,12.0718 -10.74886,0 -21.33235,-3.4727 -27.94703,-6.9454 z m 229.22982,5.2917 c -6.9454,-7.4415 -13.3948,-14.7176 -19.6787,-21.9938 9.922,-10.9142 15.5445,-25.3011 18.5211,-42.3339 h -22.4899 c -1.4883,9.922 -4.961,20.1748 -9.42594,27.2855 -5.45711,-5.6224 -12.23715,-13.7254 -18.68647,-21.0016 l 0.16537,-0.6614 c 15.37913,-7.6069 21.99384,-17.3636 21.99384,-28.6085 0,-16.0406 -12.89865,-26.128 -30.09682,-26.128 -22.48992,0 -33.73487,15.3791 -33.73487,29.4353 0,8.103 3.80344,16.206 8.59908,21.6631 v 0.4961 c -12.73326,6.78 -21.16697,17.3635 -21.16697,32.0812 0,15.7098 11.90642,31.5851 38.86124,31.5851 13.22936,0 23.31675,-4.1342 30.5929,-9.7567 2.64587,2.9766 4.96104,5.4571 7.27614,7.9376 z m -63.3356,-16.3713 c -11.74105,0 -18.85184,-7.9376 -18.85184,-17.5289 0,-7.2761 4.13418,-12.0718 8.76446,-15.5445 9.26055,10.2528 18.35573,20.6709 25.13578,27.4509 -3.30734,3.142 -8.76445,5.6225 -15.0484,5.6225 z m 2.81124,-81.3606 c 6.44932,0 9.59129,5.7879 9.59129,11.0796 0,6.4493 -3.96881,10.9143 -12.07179,16.3714 -5.29175,-5.4571 -7.77225,-10.4182 -7.77225,-16.0406 0,-5.7879 3.47271,-11.4104 9.92202,-11.4104 z m 165.72866,69.1235 8.5991,28.6084 h 27.2855 l -34.727,-111.4573 h -33.0735 l -33.9002,111.4573 h 25.9626 l 7.9376,-28.6084 z m -28.2778,-18.8519 6.6147,-23.6475 c 1.819,-6.4493 3.4727,-14.883 5.1264,-21.4977 h 0.3307 c 1.6537,6.6147 3.6381,14.8831 5.6225,21.4977 l 6.9454,23.6475 z m 79.8878,46.9642 c 5.6225,0.8269 14.883,1.6537 27.2856,1.6537 22.1591,0 35.7192,-3.6381 43.8222,-10.0874 6.9454,-5.6225 11.5757,-13.5601 11.5757,-23.8128 0,-14.2216 -9.4259,-23.9782 -22.1592,-27.2856 v -0.3307 c 12.5679,-4.7957 18.3558,-13.8908 18.3558,-23.6475 0,-10.2527 -5.4572,-17.8596 -13.2294,-21.9938 -8.2684,-4.7957 -17.6943,-6.284 -33.0734,-6.284 -12.7333,0 -25.9626,1.1576 -32.5773,2.3152 z m 24.9704,-92.7708 c 1.9844,-0.3308 5.1264,-0.6615 10.7489,-0.6615 11.4103,0 17.8596,4.4649 17.8596,12.8986 0,8.2684 -6.9454,13.7255 -20.3401,13.7255 h -8.2684 z m 0,43.9876 h 8.5991 c 12.5679,0 22.6553,4.4649 22.6553,15.5445 0,11.741 -10.0874,16.2059 -21.4977,16.2059 -4.2996,0 -7.2762,0 -9.7567,-0.3307 z m 125.033,-64.1624 c -32.7427,0 -54.2404,24.9704 -54.2404,58.3745 0,31.9159 19.5133,56.8863 52.4214,56.8863 32.7426,0 54.7364,-21.9938 54.7364,-58.7053 0,-30.9236 -18.6864,-56.5555 -52.9174,-56.5555 z m -0.4961,20.0094 c 17.3635,0 26.7895,17.1982 26.7895,37.3729 0,21.6631 -9.7567,37.8691 -26.7895,37.8691 -16.8674,0 -27.1202,-15.3792 -27.1202,-37.373 0,-21.663 9.922,-37.869 27.1202,-37.869 z m 125.5292,93.4323 37.5383,-111.4573 h -26.7894 l -14.2216,47.6257 c -3.8034,12.7332 -7.2761,25.9626 -10.0874,39.3573 h -0.4961 c -2.6458,-13.8908 -6.1185,-26.4587 -9.922,-39.8534 l -13.5601,-47.1296 h -27.6163 l 35.7193,111.4573 z m 116.7646,-67.6351 h -41.0111 v -23.1513 h 43.4916 v -20.6709 h -68.6273 v 111.4573 h 70.9424 v -20.6708 h -45.8067 v -26.4588 h 41.0111 z"
     id="text72"
     style="font-weight:bold;font-size:165.367px;line-height:0;font-family:'Myriad Pro';-inkscape-font-specification:'Myriad Pro Bold';letter-spacing:1.00771px;fill:#ffffff;fill-rule:evenodd;stroke-width:10.0771"
     aria-label="18 YEARS &amp; ABOVE" />
</svg>
