<?xml version="1.0" encoding="UTF-8" standalone="no"?>
<svg
   width="1915.2755"
   height="1915.6562"
   viewBox="0 0 1915.2755 1915.6562"
   version="1.1"
   id="svg5"
   sodipodi:docname="trace (24).svg"
   inkscape:version="1.4.3 (0d15f75042, 2025-12-25)"
   xmlns:inkscape="http://www.inkscape.org/namespaces/inkscape"
   xmlns:sodipodi="http://sodipodi.sourceforge.net/DTD/sodipodi-0.dtd"
   xmlns="http://www.w3.org/2000/svg"
   xmlns:svg="http://www.w3.org/2000/svg">
  <defs
     id="defs5" />
  <sodipodi:namedview
     id="namedview5"
     pagecolor="#ffffff"
     bordercolor="#000000"
     borderopacity="0.25"
     inkscape:showpageshadow="2"
     inkscape:pageopacity="0.0"
     inkscape:pagecheckerboard="0"
     inkscape:deskcolor="#d1d1d1"
     inkscape:zoom="0.20028161"
     inkscape:cx="551.72314"
     inkscape:cy="913.71343"
     inkscape:window-width="1280"
     inkscape:window-height="730"
     inkscape:window-x="0"
     inkscape:window-y="0"
     inkscape:window-maximized="1"
     inkscape:current-layer="svg5"
     showguides="false" />
  <path
     d="M 957.63867,0 C 429.88942,-5.346719e-4 -6.0605065e-5,430.00628 0,957.82812 -9.3668044e-5,1485.6831 429.92246,1915.6568 957.63867,1915.6563 1485.3874,1915.6557 1915.2754,1485.649 1915.2754,957.82812 1915.2754,429.97347 1485.3537,5.3463724e-4 957.63867,0 Z"
     style="fill:#403f41;stroke-width:12.5968"
     id="path7"
     sodipodi:nodetypes="sssss" />
  <path
     d="m 957.00781,12.974609 c 520.04389,-1.2e-5 943.65579,423.728871 943.65629,943.843751 5e-4,520.14854 -423.6445,943.84574 -943.65629,943.84574 C 436.96299,1900.6639 13.351012,1476.9343 13.351563,956.81836 13.352111,436.66963 436.99745,12.97462 957.00781,12.974609 Z"
     style="fill:#ffffff;stroke-width:12.5968"
     id="path2"
     sodipodi:nodetypes="sssss" />
  <path
     d="M 957.80273,34.908203 C 449.3531,34.908205 35.123046,449.51326 35.123047,958.50195 c -4.4e-5,508.95645 414.197803,923.59185 922.679683,923.59185 508.44967,0 922.67777,-414.6031 922.67777,-923.59185 0,-508.95646 -414.1959,-923.593786 -922.67777,-923.593747 z"
     style="display:inline;fill:#e92c36;fill-rule:evenodd;stroke-width:1.22161"
     id="path4" />
  <path
     id="path1"
     style="font-size:96px;line-height:0;font-family:'Arial Black';-inkscape-font-specification:'Arial Black, Normal';letter-spacing:0.52px;fill:#e74e5a;fill-rule:evenodd;stroke-width:3.44648;fill-opacity:1"
     d="M 957.80273 34.908203 C 951.95369 34.908203 946.11659 34.96302 940.29297 35.072266 C 942.58681 46.775043 948.17833 56.980833 957.06641 65.691406 C 966.44096 74.878726 977.18848 80.489024 989.30859 82.521484 C 998.19114 84.006494 1008.704 82.824476 1020.8477 78.972656 C 1014.6953 93.454776 1012.9238 106.89796 1015.5352 119.30273 C 1018.0628 131.62539 1024.726 143.07641 1035.5234 153.6582 C 1046.572 164.48615 1059.1983 171.611 1073.4043 175.03125 C 1087.6102 178.45154 1102.0606 177.27001 1116.7539 171.48633 C 1131.447 165.70275 1148.35 153.05904 1167.4629 133.55664 C 1177.6346 123.17767 1186.1455 112.4027 1192.9941 101.22852 C 1200.0086 90.052662 1204.333 79.276141 1205.9688 68.900391 C 1205.9694 68.895989 1205.97 68.891121 1205.9707 68.886719 C 1180.6068 61.779398 1154.8054 55.732466 1128.6191 50.798828 C 1129.3267 51.421582 1130.0271 52.074163 1130.7207 52.753906 C 1138.756 60.628756 1143.0334 69.577069 1143.5488 79.599609 C 1143.9806 89.540159 1141.2011 97.565572 1135.2129 103.67578 C 1128.9787 110.03712 1120.8889 113.18462 1110.9434 113.11914 C 1100.9141 112.97171 1091.8397 108.91976 1083.7207 100.96289 C 1075.1832 92.595872 1070.7018 83.607107 1070.2734 73.998047 C 1069.927 64.305287 1072.8713 56.279289 1079.1055 49.917969 C 1081.5292 47.444827 1084.2195 45.462679 1087.1777 43.972656 C 1044.8926 37.99852 1001.6991 34.9082 957.80273 34.908203 z M 846.49414 79.851562 L 804.90039 122.29102 C 811.13811 139.10262 813.47256 156.20271 811.90234 173.5918 C 810.33208 190.98091 803.80148 211.16324 792.3125 234.13867 L 834.375 275.36133 C 842.36624 259.9856 848.21587 246.45819 851.92188 234.7832 C 855.71019 223.0243 858.52774 209.82062 860.375 195.17188 L 983.41211 315.75195 L 1034.2598 263.86719 L 846.49414 79.851562 z M 643.04297 90.330078 C 589.65214 109.80639 538.54013 134.08744 490.23633 162.64844 C 498.53958 168.54165 507.59572 172.66972 517.4043 175.03125 C 531.61023 178.45154 546.06063 177.27001 560.75391 171.48633 C 575.44706 165.70275 592.35001 153.05904 611.46289 133.55664 C 621.63458 123.17767 630.14558 112.4027 636.99414 101.22852 C 639.30124 97.552707 641.31779 93.919383 643.04297 90.330078 z M 1376.5312 135.72852 C 1379.9946 148.84323 1381.1178 162.13111 1379.9023 175.5918 C 1378.332 192.98091 1371.8015 213.16324 1360.3125 236.13867 L 1402.375 277.36133 C 1410.3663 261.9856 1416.2159 248.45819 1419.9219 236.7832 C 1423.7102 225.0243 1426.5278 211.82062 1428.375 197.17188 L 1551.4102 317.75195 L 1585.8086 282.6543 C 1523.4406 224.54106 1453.0572 174.93994 1376.5312 135.72852 z M 421.07617 207.82617 C 401.21429 222.10156 381.9384 237.14486 363.29297 252.91406 L 427.41211 315.75195 L 478.25977 263.86719 L 421.07617 207.82617 z M 714.13086 252.62305 C 704.11299 252.49111 694.56183 254.80037 685.47852 259.55078 C 673.36742 265.88467 658.70391 277.83587 641.48828 295.40234 L 548.64648 390.13477 L 732.59375 570.4082 L 788.54297 513.31641 L 713.88672 440.15039 L 718.80469 435.13086 C 723.8874 429.94463 729.85961 426.69642 736.7207 425.38477 C 741.84684 424.50491 749.93579 425.70582 760.98438 428.99023 L 846.95508 453.71484 L 909.91406 389.47266 L 829.6582 364.68945 C 825.66971 363.40446 819.23948 362.35087 810.36914 361.5293 C 801.58079 360.62408 795.40872 360.48005 791.85352 361.0957 C 786.56175 361.97727 779.46724 364.69951 770.56836 369.26172 C 776.92432 358.92752 781.01474 349.8987 782.8418 342.17773 C 785.70114 330.0567 785.58264 318.21632 782.48438 306.65234 C 779.30246 295.00645 772.60958 284.18112 762.4043 274.17969 C 750.69332 262.70258 737.99332 255.83218 724.30469 253.56836 C 720.86162 252.98192 717.47015 252.66703 714.13086 252.62305 z M 1282.1309 254.62305 C 1272.113 254.49111 1262.5618 256.80037 1253.4785 261.55078 C 1241.3674 267.88467 1226.7039 279.83587 1209.4883 297.40234 L 1116.6465 392.13477 L 1300.5938 572.4082 L 1356.543 515.31641 L 1281.8867 442.15039 L 1286.8047 437.13086 C 1291.8874 431.94463 1297.8596 428.69642 1304.7207 427.38477 C 1309.8468 426.50491 1317.9359 427.70582 1328.9844 430.99023 L 1414.9551 455.71484 L 1477.9141 391.47266 L 1397.6582 366.68945 C 1393.6697 365.40446 1387.2394 364.35087 1378.3691 363.5293 C 1369.5807 362.62408 1363.4087 362.48005 1359.8535 363.0957 C 1354.5618 363.97727 1347.4673 366.69951 1338.5684 371.26172 C 1344.9244 360.92752 1349.0147 351.8987 1350.8418 344.17773 C 1353.7011 332.0567 1353.5827 320.21632 1350.4844 308.65234 C 1347.3025 297.00645 1340.6096 286.18112 1330.4043 276.17969 C 1318.6933 264.70258 1305.9934 257.83218 1292.3047 255.56836 C 1288.8616 254.98192 1285.4701 254.66703 1282.1309 254.62305 z M 694.3125 327.84961 C 700.22028 327.98941 705.77198 330.60622 710.96875 335.69922 C 714.98393 339.63424 717.35074 344.32997 718.06836 349.78906 C 718.86801 355.16449 717.80145 360.1034 714.86523 364.60547 C 709.24206 373.68987 705.15855 379.52995 702.61719 382.12305 L 679.13086 406.08789 L 641.73828 369.44336 L 666.20898 344.47266 C 676.37441 334.10008 684.89005 328.5904 691.75781 327.94141 C 692.61629 327.86027 693.46853 327.82964 694.3125 327.84961 z M 1262.3125 329.84961 C 1268.2203 329.98941 1273.7719 332.60622 1278.9688 337.69922 C 1282.9839 341.63424 1285.3508 346.32997 1286.0684 351.78906 C 1286.868 357.16449 1285.8014 362.1034 1282.8652 366.60547 C 1277.242 375.68987 1273.1586 381.52995 1270.6172 384.12305 L 1247.1309 408.08789 L 1209.7383 371.44336 L 1234.209 346.47266 C 1244.3744 336.10008 1252.89 330.5904 1259.7578 329.94141 C 1260.6163 329.86027 1261.4685 329.82964 1262.3125 329.84961 z M 254.48828 361.54102 C 236.28093 382.99749 219.03364 405.29312 202.8125 428.36133 C 203.523 428.56184 204.24755 428.7712 204.98438 428.99023 L 290.95508 453.71484 L 353.91406 389.47266 L 273.6582 364.68945 C 269.68773 363.41027 263.29661 362.36097 254.48828 361.54102 z M 180.2168 462.03516 C 165.41953 485.16374 151.62269 508.99188 138.88867 533.45703 L 176.59375 570.4082 L 232.54297 513.31641 L 180.2168 462.03516 z M 1058.3477 467.73828 C 1055.835 467.80636 1053.2699 468.00521 1050.6523 468.33203 C 1029.7936 470.86286 1007.3063 484.43086 983.18945 509.03906 C 964.97895 527.62077 954.1034 546.25322 950.5625 564.93555 C 946.1645 589.01333 951.66541 608.59796 967.06641 623.69141 C 976.44101 632.87873 987.18849 638.48902 999.30859 640.52148 C 1008.1911 642.00649 1018.704 640.82448 1030.8477 636.97266 C 1024.6953 651.45478 1022.9238 664.89796 1025.5352 677.30273 C 1028.0628 689.62539 1034.726 701.07641 1045.5234 711.6582 C 1056.572 722.48615 1069.1983 729.611 1083.4043 733.03125 C 1097.6102 736.45154 1112.0606 735.27001 1126.7539 729.48633 C 1141.447 723.70275 1158.35 711.05904 1177.4629 691.55664 C 1187.6346 681.17767 1196.1455 670.4027 1202.9941 659.22852 C 1210.0086 648.05267 1214.3331 637.27614 1215.9688 626.90039 C 1217.6864 616.441 1216.6196 605.22207 1212.7695 593.24414 C 1208.9177 581.10056 1202.3887 570.5174 1193.1816 561.49414 C 1183.6396 552.14279 1172.5143 546.08104 1159.8066 543.30859 C 1147.181 540.45249 1133.6028 541.66643 1119.0703 546.95117 C 1121.4309 534.4963 1121.6538 523.88648 1119.7422 515.12109 C 1117.1375 503.37931 1111.6926 493.4471 1103.4062 485.32617 C 1090.9557 473.12425 1075.9366 467.2617 1058.3477 467.73828 z M 1616.3477 469.73828 C 1613.835 469.80636 1611.2699 470.00521 1608.6523 470.33203 C 1587.7936 472.86286 1565.3063 486.43086 1541.1895 511.03906 C 1522.979 529.62077 1512.1034 548.25322 1508.5625 566.93555 C 1504.1645 591.01333 1509.6654 610.59796 1525.0664 625.69141 C 1534.441 634.87873 1545.1885 640.48902 1557.3086 642.52148 C 1566.1911 644.00649 1576.704 642.82448 1588.8477 638.97266 C 1582.6953 653.45478 1580.9238 666.89796 1583.5352 679.30273 C 1586.0628 691.62539 1592.726 703.07641 1603.5234 713.6582 C 1614.572 724.48615 1627.1983 731.611 1641.4043 735.03125 C 1655.6102 738.45154 1670.0606 737.27001 1684.7539 731.48633 C 1699.447 725.70275 1716.35 713.05904 1735.4629 693.55664 C 1745.6346 683.17767 1754.1455 672.4027 1760.9941 661.22852 C 1768.0086 650.05267 1772.333 639.27614 1773.9688 628.90039 C 1775.6864 618.441 1774.6196 607.22207 1770.7695 595.24414 C 1766.9177 583.10056 1760.3887 572.5174 1751.1816 563.49414 C 1741.6396 554.14279 1730.5143 548.08104 1717.8066 545.30859 C 1705.181 542.45249 1691.6028 543.66643 1677.0703 548.95117 C 1679.4309 536.4963 1679.6538 525.88648 1677.7422 517.12109 C 1675.1375 505.37931 1669.6927 495.4471 1661.4062 487.32617 C 1648.9557 475.12425 1633.9366 469.2617 1616.3477 469.73828 z M 496.34766 471.73828 C 493.83496 471.80636 491.26993 472.00521 488.65234 472.33203 C 467.7937 474.86286 445.30621 488.43086 421.18945 513.03906 C 402.97891 531.62077 392.10335 550.25322 388.5625 568.93555 C 384.16444 593.01333 389.66539 612.59796 405.06641 627.69141 C 414.44096 636.87873 425.18848 642.48902 437.30859 644.52148 C 446.19114 646.00649 456.70402 644.82448 468.84766 640.97266 C 462.69527 655.45478 460.9238 668.89796 463.53516 681.30273 C 466.06279 693.62539 472.72601 705.07641 483.52344 715.6582 C 494.57206 726.48615 507.19836 733.611 521.4043 737.03125 C 535.61023 740.45154 550.06063 739.27001 564.75391 733.48633 C 579.44706 727.70275 596.35001 715.05904 615.46289 695.55664 C 625.63458 685.17767 634.14558 674.4027 640.99414 663.22852 C 648.00861 652.05267 652.33305 641.27614 653.96875 630.90039 C 655.68646 620.441 654.61965 609.22207 650.76953 597.24414 C 646.91771 585.10056 640.3888 574.5174 631.18164 565.49414 C 621.63971 556.14279 610.51427 550.08104 597.80664 547.30859 C 585.18096 544.45249 571.60277 545.66643 557.07031 550.95117 C 559.43088 538.4963 559.65376 527.88648 557.74219 519.12109 C 555.13746 507.37931 549.69269 497.4471 541.40625 489.32617 C 528.95573 477.12425 513.93656 471.2617 496.34766 471.73828 z M 1037.5781 527.88477 C 1045.3675 527.80617 1052.4434 530.88293 1058.8047 537.11719 C 1064.9149 543.10536 1068.0481 549.87025 1068.207 557.41016 C 1068.3659 564.95006 1065.576 571.6487 1059.834 577.50781 C 1053.3536 584.1202 1046.2193 587.54869 1038.4316 587.79297 C 1030.6423 587.87157 1023.5664 584.79284 1017.2051 578.55859 C 1011.0111 572.4884 1007.8757 565.64318 1007.7988 558.01953 C 1007.7208 550.23022 1010.7169 543.23687 1016.7871 537.04297 C 1022.7752 530.93278 1029.7051 527.88134 1037.5781 527.88477 z M 1595.5781 529.88477 C 1603.3675 529.80617 1610.4434 532.88293 1616.8047 539.11719 C 1622.9149 545.10536 1626.0481 551.87025 1626.207 559.41016 C 1626.3659 566.95006 1623.576 573.6487 1617.834 579.50781 C 1611.3536 586.1202 1604.2193 589.54869 1596.4316 589.79297 C 1588.6423 589.87157 1581.5664 586.79284 1575.2051 580.55859 C 1569.0111 574.4884 1565.8757 567.64318 1565.7988 560.01953 C 1565.7208 552.23022 1568.7169 545.23687 1574.7871 539.04297 C 1580.7752 532.93278 1587.7051 529.88134 1595.5781 529.88477 z M 475.57812 531.88477 C 483.36746 531.80617 490.44339 534.88293 496.80469 541.11719 C 502.9149 547.10536 506.04809 553.87025 506.20703 561.41016 C 506.36594 568.95006 503.57606 575.6487 497.83398 581.50781 C 491.35366 588.1202 484.2193 591.54869 476.43164 591.79297 C 468.64227 591.87157 461.5664 588.79284 455.20508 582.55859 C 449.01116 576.4884 445.87576 569.64318 445.79883 562.01953 C 445.72033 554.23022 448.71689 547.23687 454.78711 541.04297 C 460.77522 534.93278 467.70509 531.88134 475.57812 531.88477 z M 1113.5 598.59766 C 1123.5292 598.74512 1132.6016 602.79704 1140.7207 610.75391 C 1148.756 618.62876 1153.0334 627.57707 1153.5488 637.59961 C 1153.9806 647.54016 1151.2011 655.56557 1145.2129 661.67578 C 1138.9787 668.03712 1130.8889 671.18462 1120.9434 671.11914 C 1110.9141 670.97171 1101.8397 666.91976 1093.7207 658.96289 C 1085.1832 650.59587 1080.7018 641.60711 1080.2734 631.99805 C 1079.927 622.30529 1082.8713 614.27929 1089.1055 607.91797 C 1095.4218 601.47298 1103.5528 598.36652 1113.5 598.59766 z M 1671.5 600.59766 C 1681.5292 600.74512 1690.6016 604.79704 1698.7207 612.75391 C 1706.756 620.62876 1711.0334 629.57707 1711.5488 639.59961 C 1711.9806 649.54016 1709.2011 657.56557 1703.2129 663.67578 C 1696.9787 670.03712 1688.8889 673.18462 1678.9434 673.11914 C 1668.9141 672.97171 1659.8397 668.91976 1651.7207 660.96289 C 1643.1832 652.59587 1638.7018 643.60711 1638.2734 633.99805 C 1637.927 624.30529 1640.8713 616.27929 1647.1055 609.91797 C 1653.4218 603.47298 1661.5528 600.36652 1671.5 600.59766 z M 551.5 602.59766 C 561.52922 602.74512 570.60165 606.79704 578.7207 614.75391 C 586.75601 622.62876 591.0334 631.57707 591.54883 641.59961 C 591.98061 651.54016 589.20107 659.56557 583.21289 665.67578 C 576.97862 672.03712 568.88892 675.18462 558.94336 675.11914 C 548.91408 674.97171 539.83975 670.91976 531.7207 662.96289 C 523.18322 654.59587 518.70188 645.60711 518.27344 635.99805 C 517.92707 626.30529 520.87122 618.27929 527.10547 611.91797 C 533.42174 605.47298 541.55278 602.36652 551.5 602.59766 z M 856.49414 637.85156 L 814.90039 680.29102 C 821.13819 697.10262 823.47254 714.20271 821.90234 731.5918 C 820.33204 748.98091 813.8015 769.16324 802.3125 792.13867 L 844.375 833.36133 C 852.3663 817.9856 858.21587 804.45819 861.92188 792.7832 C 865.71018 781.0243 868.5278 767.82063 870.375 753.17188 L 993.41016 873.75195 L 1044.2598 821.86719 L 856.49414 637.85156 z M 1414.4941 639.85156 L 1372.9004 682.29102 C 1379.1382 699.10262 1381.4725 716.20271 1379.9023 733.5918 C 1378.332 750.98091 1371.8015 771.16324 1360.3125 794.13867 L 1402.375 835.36133 C 1410.3663 819.9856 1416.2159 806.45819 1419.9219 794.7832 C 1423.7102 783.0243 1426.5278 769.82063 1428.375 755.17188 L 1551.4102 875.75195 L 1602.2598 823.86719 L 1414.4941 639.85156 z M 294.49414 641.85156 L 252.90039 684.29102 C 259.13811 701.10262 261.47256 718.20271 259.90234 735.5918 C 258.33208 752.98091 251.80148 773.16324 240.3125 796.13867 L 282.375 837.36133 C 290.36624 821.9856 296.21588 808.45819 299.92188 796.7832 C 303.71019 785.0243 306.52774 771.82062 308.375 757.17188 L 431.41211 877.75195 L 482.25977 825.86719 L 294.49414 641.85156 z M 724.13086 810.62305 C 714.113 810.49111 704.56184 812.80037 695.47852 817.55078 C 683.36742 823.88467 668.70388 835.83587 651.48828 853.40234 L 558.64648 948.13477 L 742.59375 1128.4082 L 798.54297 1071.3164 L 723.88672 998.15039 L 728.80469 993.13086 C 733.88739 987.94463 739.8596 984.69642 746.7207 983.38477 C 751.8468 982.50491 759.93587 983.70582 770.98438 986.99023 L 856.95508 1011.7148 L 919.91406 947.47266 L 839.6582 922.68945 C 835.6697 921.40446 829.23944 920.35087 820.36914 919.5293 C 811.58074 918.62408 805.40872 918.48005 801.85352 919.0957 C 796.56182 919.97727 789.46726 922.69951 780.56836 927.26172 C 786.92436 916.92752 791.0147 907.8987 792.8418 900.17773 C 795.7011 888.0567 795.58268 876.21632 792.48438 864.65234 C 789.30247 853.00645 782.6096 842.18112 772.4043 832.17969 C 760.6933 820.70258 747.99339 813.83218 734.30469 811.56836 C 730.86161 810.98192 727.47015 810.66703 724.13086 810.62305 z M 1282.1309 812.62305 C 1272.113 812.49111 1262.5618 814.80037 1253.4785 819.55078 C 1241.3674 825.88467 1226.7039 837.83587 1209.4883 855.40234 L 1116.6465 950.13477 L 1300.5938 1130.4082 L 1356.543 1073.3164 L 1281.8867 1000.1504 L 1286.8047 995.13086 C 1291.8874 989.94463 1297.8596 986.69642 1304.7207 985.38477 C 1309.8468 984.50491 1317.9359 985.70582 1328.9844 988.99023 L 1414.9551 1013.7148 L 1477.9141 949.47266 L 1397.6582 924.68945 C 1393.6697 923.40446 1387.2394 922.35087 1378.3691 921.5293 C 1369.5807 920.62408 1363.4087 920.48005 1359.8535 921.0957 C 1354.5618 921.97727 1347.4673 924.69951 1338.5684 929.26172 C 1344.9244 918.92752 1349.0147 909.8987 1350.8418 902.17773 C 1353.7011 890.0567 1353.5827 878.21632 1350.4844 866.65234 C 1347.3025 855.00645 1340.6096 844.18112 1330.4043 834.17969 C 1318.6933 822.70258 1305.9934 815.83218 1292.3047 813.56836 C 1288.8616 812.98192 1285.4701 812.66703 1282.1309 812.62305 z M 1844.1309 812.62305 C 1834.1128 812.49122 1824.5618 814.80036 1815.4785 819.55078 C 1803.3674 825.88468 1788.7039 837.83584 1771.4883 855.40234 L 1678.6465 950.13477 L 1862.5938 1130.4082 L 1864.8672 1128.0879 C 1870.6745 1096.9365 1874.9129 1065.2403 1877.4961 1033.0879 L 1843.8867 1000.1504 L 1848.8047 995.13086 C 1853.8874 989.94466 1859.8596 986.69647 1866.7207 985.38477 C 1869.976 984.82605 1874.4263 985.10605 1880.0703 986.22656 C 1880.3434 977.01767 1880.4805 967.77544 1880.4805 958.50195 C 1880.4805 910.85828 1876.8502 864.04039 1869.8535 818.3125 C 1864.8201 816.03189 1859.6382 814.45041 1854.3047 813.56836 C 1850.8616 812.98191 1847.4702 812.66699 1844.1309 812.62305 z M 162.13086 814.62305 C 152.11281 814.49123 142.56183 816.80037 133.47852 821.55078 C 121.36742 827.88467 106.70392 839.83587 89.488281 857.40234 L 36.296875 911.67773 C 35.517949 927.18958 35.123047 942.80109 35.123047 958.50195 C 35.123046 969.16867 35.305098 979.79409 35.666016 990.375 L 180.59375 1132.4082 L 236.54297 1075.3164 L 161.88672 1002.1504 L 166.80469 997.13086 C 171.8874 991.94463 177.85961 988.69642 184.7207 987.38477 C 189.84684 986.50491 197.9358 987.70582 208.98438 990.99023 L 294.95508 1015.7148 L 357.91406 951.47266 L 277.6582 926.68945 C 273.66971 925.40446 267.23948 924.35087 258.36914 923.5293 C 249.58079 922.62408 243.40872 922.48005 239.85352 923.0957 C 234.56175 923.97727 227.46724 926.69951 218.56836 931.26172 C 224.92432 920.92752 229.01474 911.8987 230.8418 904.17773 C 233.70114 892.0567 233.58265 880.21632 230.48438 868.65234 C 227.30247 857.00645 220.60958 846.18112 210.4043 836.17969 C 198.69332 824.70258 185.99332 817.83218 172.30469 815.56836 C 168.86162 814.98192 165.47021 814.66699 162.13086 814.62305 z M 704.3125 885.84961 C 710.22028 885.98941 715.77195 888.60622 720.96875 893.69922 C 724.98395 897.63424 727.35076 902.32997 728.06836 907.78906 C 728.86796 913.16449 727.80143 918.1034 724.86523 922.60547 C 719.24203 931.68987 715.15859 937.52995 712.61719 940.12305 L 689.13086 964.08789 L 651.73828 927.44336 L 676.20898 902.47266 C 686.37438 892.10008 694.89001 886.5904 701.75781 885.94141 C 702.61629 885.86027 703.46853 885.82964 704.3125 885.84961 z M 1262.3125 887.84961 C 1268.2203 887.98941 1273.772 890.60622 1278.9688 895.69922 C 1282.984 899.63424 1285.3508 904.32997 1286.0684 909.78906 C 1286.868 915.16449 1285.8014 920.1034 1282.8652 924.60547 C 1277.242 933.68987 1273.1586 939.52995 1270.6172 942.12305 L 1247.1309 966.08789 L 1209.7383 929.44336 L 1234.209 904.47266 C 1244.3744 894.10008 1252.89 888.5904 1259.7578 887.94141 C 1260.6163 887.86027 1261.4685 887.82964 1262.3125 887.84961 z M 1824.3125 887.84961 C 1830.2203 887.98939 1835.772 890.60628 1840.9688 895.69922 C 1844.9839 899.63422 1847.3508 904.32996 1848.0684 909.78906 C 1848.868 915.16446 1847.8014 920.10337 1844.8652 924.60547 C 1839.242 933.68987 1835.1586 939.52995 1832.6172 942.12305 L 1809.1309 966.08789 L 1771.7383 929.44336 L 1796.209 904.47266 C 1806.3744 894.10006 1814.89 888.59031 1821.7578 887.94141 C 1822.6163 887.86027 1823.4685 887.82964 1824.3125 887.84961 z M 142.3125 889.84961 C 148.22028 889.98941 153.77198 892.60622 158.96875 897.69922 C 162.98393 901.63424 165.35074 906.32997 166.06836 911.78906 C 166.86801 917.16449 165.80145 922.1034 162.86523 926.60547 C 157.24206 935.68987 153.15855 941.52995 150.61719 944.12305 L 127.13086 968.08789 L 89.738281 931.44336 L 114.20898 906.47266 C 124.37441 896.10008 132.89005 890.5904 139.75781 889.94141 C 140.61629 889.86027 141.46853 889.82964 142.3125 889.84961 z M 494.34766 1031.7383 C 491.83496 1031.8064 489.26993 1032.0052 486.65234 1032.332 C 465.79364 1034.8629 443.30625 1048.4309 419.18945 1073.0391 C 400.97895 1091.6208 390.1034 1110.2532 386.5625 1128.9355 C 382.1645 1153.0133 387.66541 1172.5979 403.06641 1187.6914 C 412.44101 1196.8787 423.18849 1202.489 435.30859 1204.5215 C 444.19109 1206.0065 454.70396 1204.8245 466.84766 1200.9727 C 460.69526 1215.4548 458.92376 1228.8979 461.53516 1241.3027 C 464.06276 1253.6253 470.72604 1265.0764 481.52344 1275.6582 C 492.57204 1286.4862 505.1983 1293.6112 519.4043 1297.0312 C 533.6102 1300.4515 548.06061 1299.27 562.75391 1293.4863 C 577.44701 1287.7028 594.34999 1275.059 613.46289 1255.5566 C 623.63459 1245.1777 632.14554 1234.4026 638.99414 1223.2285 C 646.00864 1212.0526 650.33305 1201.2761 651.96875 1190.9004 C 653.68645 1180.441 652.61963 1169.222 648.76953 1157.2441 C 644.91773 1145.1005 638.38874 1134.5174 629.18164 1125.4941 C 619.63964 1116.1428 608.51434 1110.081 595.80664 1107.3086 C 583.18104 1104.4525 569.60281 1105.6664 555.07031 1110.9512 C 557.43091 1098.4963 557.65379 1087.8865 555.74219 1079.1211 C 553.13749 1067.3793 547.69265 1057.4471 539.40625 1049.3262 C 526.9557 1037.1242 511.93655 1031.2617 494.34766 1031.7383 z M 1614.3477 1031.7383 C 1611.835 1031.8064 1609.2699 1032.0052 1606.6523 1032.332 C 1585.7936 1034.8629 1563.3063 1048.4309 1539.1895 1073.0391 C 1520.979 1091.6208 1510.1034 1110.2532 1506.5625 1128.9355 C 1502.1645 1153.0133 1507.6654 1172.5979 1523.0664 1187.6914 C 1532.441 1196.8787 1543.1885 1202.489 1555.3086 1204.5215 C 1564.1911 1206.0065 1574.704 1204.8245 1586.8477 1200.9727 C 1580.6953 1215.4548 1578.9238 1228.8979 1581.5352 1241.3027 C 1584.0628 1253.6253 1590.726 1265.0764 1601.5234 1275.6582 C 1612.572 1286.4862 1625.1983 1293.6111 1639.4043 1297.0312 C 1653.6102 1300.4515 1668.0606 1299.27 1682.7539 1293.4863 C 1697.447 1287.7028 1714.35 1275.059 1733.4629 1255.5566 C 1743.6346 1245.1777 1752.1455 1234.4026 1758.9941 1223.2285 C 1766.0086 1212.0526 1770.333 1201.2761 1771.9688 1190.9004 C 1773.6864 1180.441 1772.6196 1169.222 1768.7695 1157.2441 C 1764.9177 1145.1005 1758.3887 1134.5174 1749.1816 1125.4941 C 1739.6396 1116.1428 1728.5143 1110.081 1715.8066 1107.3086 C 1703.181 1104.4525 1689.6028 1105.6664 1675.0703 1110.9512 C 1677.4309 1098.4963 1677.6538 1087.8865 1675.7422 1079.1211 C 1673.1375 1067.3793 1667.6927 1057.4471 1659.4062 1049.3262 C 1646.9557 1037.1242 1631.9366 1031.2617 1614.3477 1031.7383 z M 1052.3477 1033.7383 C 1049.835 1033.8064 1047.2699 1034.0052 1044.6523 1034.332 C 1023.7936 1036.8629 1001.3063 1050.4309 977.18945 1075.0391 C 958.97895 1093.6208 948.1034 1112.2532 944.5625 1130.9355 C 940.1645 1155.0133 945.66541 1174.5979 961.06641 1189.6914 C 970.44101 1198.8787 981.18849 1204.489 993.30859 1206.5215 C 1002.1911 1208.0065 1012.704 1206.8245 1024.8477 1202.9727 C 1018.6953 1217.4548 1016.9238 1230.8979 1019.5352 1243.3027 C 1022.0628 1255.6253 1028.726 1267.0764 1039.5234 1277.6582 C 1050.572 1288.4862 1063.1983 1295.6111 1077.4043 1299.0312 C 1091.6102 1302.4515 1106.0606 1301.27 1120.7539 1295.4863 C 1135.447 1289.7028 1152.35 1277.059 1171.4629 1257.5566 C 1181.6346 1247.1777 1190.1455 1236.4026 1196.9941 1225.2285 C 1204.0086 1214.0526 1208.3331 1203.2761 1209.9688 1192.9004 C 1211.6864 1182.441 1210.6196 1171.222 1206.7695 1159.2441 C 1202.9177 1147.1005 1196.3887 1136.5174 1187.1816 1127.4941 C 1177.6396 1118.1428 1166.5143 1112.081 1153.8066 1109.3086 C 1141.181 1106.4525 1127.6028 1107.6664 1113.0703 1112.9512 C 1115.4309 1100.4963 1115.6538 1089.8865 1113.7422 1081.1211 C 1111.1375 1069.3793 1105.6926 1059.4471 1097.4062 1051.3262 C 1084.9557 1039.1242 1069.9366 1033.2617 1052.3477 1033.7383 z M 473.57812 1091.8848 C 481.36753 1091.8058 488.44339 1094.8829 494.80469 1101.1172 C 500.91489 1107.1053 504.04813 1113.8703 504.20703 1121.4102 C 504.36593 1128.9501 501.57598 1135.6486 495.83398 1141.5078 C 489.35358 1148.1201 482.21934 1151.5487 474.43164 1151.793 C 466.64234 1151.872 459.56638 1148.7929 453.20508 1142.5586 C 447.01108 1136.4885 443.87573 1129.6432 443.79883 1122.0195 C 443.72083 1114.2302 446.71691 1107.2369 452.78711 1101.043 C 458.77521 1094.9328 465.70513 1091.8814 473.57812 1091.8848 z M 1593.5781 1091.8848 C 1601.3675 1091.8058 1608.4434 1094.8829 1614.8047 1101.1172 C 1620.9149 1107.1053 1624.0481 1113.8703 1624.207 1121.4102 C 1624.3659 1128.9501 1621.576 1135.6486 1615.834 1141.5078 C 1609.3536 1148.1201 1602.2193 1151.5487 1594.4316 1151.793 C 1586.6423 1151.872 1579.5664 1148.7929 1573.2051 1142.5586 C 1567.0111 1136.4885 1563.8757 1129.6432 1563.7988 1122.0195 C 1563.7208 1114.2302 1566.7169 1107.2369 1572.7871 1101.043 C 1578.7752 1094.9328 1585.7051 1091.8814 1593.5781 1091.8848 z M 1031.5781 1093.8848 C 1039.3675 1093.8058 1046.4434 1096.8829 1052.8047 1103.1172 C 1058.9149 1109.1053 1062.0481 1115.8703 1062.207 1123.4102 C 1062.3659 1130.9501 1059.576 1137.6486 1053.834 1143.5078 C 1047.3536 1150.1201 1040.2193 1153.5487 1032.4316 1153.793 C 1024.6423 1153.872 1017.5664 1150.7929 1011.2051 1144.5586 C 1005.0111 1138.4885 1001.8757 1131.6432 1001.7988 1124.0195 C 1001.7208 1116.2302 1004.7169 1109.2369 1010.7871 1103.043 C 1016.7752 1096.9328 1023.7051 1093.8814 1031.5781 1093.8848 z M 47.234375 1108.0762 C 54.009784 1149.4874 63.551814 1189.9851 75.660156 1229.3711 C 77.538041 1226.6805 79.315819 1223.9668 80.994141 1221.2285 C 88.008641 1210.0526 92.33305 1199.2761 93.96875 1188.9004 C 95.68645 1178.441 94.619631 1167.222 90.769531 1155.2441 C 86.917731 1143.1005 80.388741 1132.5174 71.181641 1123.4941 C 64.077051 1116.5315 56.094116 1111.3919 47.234375 1108.0762 z M 549.5 1162.5977 C 559.5292 1162.7452 568.6016 1166.797 576.7207 1174.7539 C 584.756 1182.6288 589.03343 1191.577 589.54883 1201.5996 C 589.98063 1211.5401 587.20109 1219.5656 581.21289 1225.6758 C 574.97869 1232.0371 566.88886 1235.1845 556.94336 1235.1191 C 546.91406 1234.9716 537.8397 1230.9198 529.7207 1222.9629 C 521.1832 1214.5959 516.70184 1205.6071 516.27344 1195.998 C 515.92704 1186.3052 518.87127 1178.2793 525.10547 1171.918 C 531.42177 1165.473 539.5528 1162.3666 549.5 1162.5977 z M 1669.5 1162.5977 C 1679.5292 1162.7452 1688.6016 1166.797 1696.7207 1174.7539 C 1704.756 1182.6288 1709.0334 1191.577 1709.5488 1201.5996 C 1709.9806 1211.5401 1707.2011 1219.5656 1701.2129 1225.6758 C 1694.9787 1232.0371 1686.8889 1235.1845 1676.9434 1235.1191 C 1666.9141 1234.9716 1657.8397 1230.9198 1649.7207 1222.9629 C 1641.1832 1214.5959 1636.7018 1205.6071 1636.2734 1195.998 C 1635.927 1186.3052 1638.8713 1178.2793 1645.1055 1171.918 C 1651.4218 1165.473 1659.5528 1162.3666 1669.5 1162.5977 z M 1107.5 1164.5977 C 1117.5292 1164.7452 1126.6016 1168.797 1134.7207 1176.7539 C 1142.756 1184.6288 1147.0334 1193.577 1147.5488 1203.5996 C 1147.9806 1213.5401 1145.2011 1221.5656 1139.2129 1227.6758 C 1132.9787 1234.0371 1124.8889 1237.1845 1114.9434 1237.1191 C 1104.9141 1236.9716 1095.8397 1232.9198 1087.7207 1224.9629 C 1079.1832 1216.5959 1074.7018 1207.6071 1074.2734 1197.998 C 1073.927 1188.3052 1076.8713 1180.2793 1083.1055 1173.918 C 1089.4218 1167.473 1097.5528 1164.3666 1107.5 1164.5977 z M 292.49414 1201.8516 L 250.90039 1244.291 C 257.13819 1261.1026 259.47254 1278.2027 257.90234 1295.5918 C 256.33204 1312.9809 249.8015 1333.1633 238.3125 1356.1387 L 280.375 1397.3613 C 288.3663 1381.9856 294.21587 1368.4602 297.92188 1356.7852 C 301.71017 1345.0263 304.5278 1331.8207 306.375 1317.1719 L 429.41016 1437.752 L 480.25977 1385.8672 L 292.49414 1201.8516 z M 1412.4941 1201.8516 L 1370.9004 1244.291 C 1377.1382 1261.1026 1379.4725 1278.2027 1377.9023 1295.5918 C 1376.332 1312.9809 1369.8015 1333.1633 1358.3125 1356.1387 L 1400.375 1397.3613 C 1408.3663 1381.9856 1414.2159 1368.4602 1417.9219 1356.7852 C 1421.7102 1345.0263 1424.5278 1331.8207 1426.375 1317.1719 L 1549.4102 1437.752 L 1600.2598 1385.8672 L 1412.4941 1201.8516 z M 850.49414 1203.8516 L 808.90039 1246.291 C 815.13819 1263.1026 817.47254 1280.2027 815.90234 1297.5918 C 814.33204 1314.9809 807.8015 1335.1633 796.3125 1358.1387 L 838.375 1399.3613 C 846.3663 1383.9856 852.21587 1370.4602 855.92188 1358.7852 C 859.71018 1347.0263 862.5278 1333.8207 864.375 1319.1719 L 987.41016 1439.752 L 1038.2598 1387.8672 L 850.49414 1203.8516 z M 1280.1309 1374.623 C 1270.113 1374.4911 1260.5618 1376.8004 1251.4785 1381.5508 C 1239.3674 1387.8847 1224.7039 1399.8358 1207.4883 1417.4023 L 1114.6465 1512.1348 L 1298.5938 1692.4082 L 1354.543 1635.3164 L 1279.8867 1562.1504 L 1284.8047 1557.1309 C 1289.8874 1551.9447 1295.8596 1548.6965 1302.7207 1547.3848 C 1307.8468 1546.505 1315.9359 1547.7058 1326.9844 1550.9902 L 1412.9551 1575.7148 L 1475.9141 1511.4727 L 1395.6582 1486.6895 C 1391.6697 1485.4045 1385.2394 1484.3509 1376.3691 1483.5293 C 1367.5807 1482.6241 1361.4087 1482.4801 1357.8535 1483.0957 C 1352.5618 1483.9773 1345.4673 1486.6995 1336.5684 1491.2617 C 1342.9244 1480.9275 1347.0147 1471.8987 1348.8418 1464.1777 C 1351.7011 1452.0567 1351.5827 1440.2162 1348.4844 1428.6523 C 1345.3025 1417.0064 1338.6096 1406.1811 1328.4043 1396.1797 C 1316.6933 1384.7026 1303.9934 1377.8322 1290.3047 1375.5684 C 1286.8616 1374.9819 1283.4701 1374.667 1280.1309 1374.623 z M 161.53711 1374.6582 C 152.88439 1374.3492 144.57684 1375.8451 136.61523 1379.1465 C 171.63882 1447.3269 214.89115 1510.6163 265.04883 1567.6895 L 292.95508 1575.7148 L 355.91406 1511.4727 L 275.6582 1486.6895 C 271.6697 1485.4045 265.23944 1484.3509 256.36914 1483.5293 C 247.58074 1482.6241 241.40872 1482.4801 237.85352 1483.0957 C 232.56182 1483.9773 225.46726 1486.6995 216.56836 1491.2617 C 222.92436 1480.9275 227.0147 1471.8987 228.8418 1464.1777 C 231.7011 1452.0567 231.58267 1440.2162 228.48438 1428.6523 C 225.30247 1417.0064 218.6096 1406.1811 208.4043 1396.1797 C 196.6933 1384.7026 183.99339 1377.8322 170.30469 1375.5684 C 167.34369 1375.064 164.42135 1374.7612 161.53711 1374.6582 z M 718.13086 1376.623 C 708.113 1376.4911 698.56184 1378.8004 689.47852 1383.5508 C 677.36742 1389.8847 662.70388 1401.8358 645.48828 1419.4023 L 552.64648 1514.1348 L 736.59375 1694.4082 L 792.54297 1637.3164 L 717.88672 1564.1504 L 722.80469 1559.1309 C 727.88739 1553.9447 733.8596 1550.6965 740.7207 1549.3848 C 745.8468 1548.505 753.93587 1549.7058 764.98438 1552.9902 L 850.95508 1577.7148 L 913.91406 1513.4727 L 833.6582 1488.6895 C 829.6697 1487.4045 823.23944 1486.3509 814.36914 1485.5293 C 805.58074 1484.6241 799.40872 1484.4801 795.85352 1485.0957 C 790.56182 1485.9773 783.46726 1488.6995 774.56836 1493.2617 C 780.92436 1482.9275 785.0147 1473.8987 786.8418 1466.1777 C 789.7011 1454.0567 789.58268 1442.2162 786.48438 1430.6523 C 783.30247 1419.0064 776.6096 1408.1811 766.4043 1398.1797 C 754.6933 1386.7026 741.99339 1379.8322 728.30469 1377.5684 C 724.86161 1376.9819 721.47015 1376.667 718.13086 1376.623 z M 1740.3359 1447.1484 L 1676.6465 1512.1348 L 1687.5625 1522.832 C 1706.3641 1498.5342 1723.9847 1473.277 1740.3359 1447.1484 z M 1260.3125 1449.8496 C 1266.2203 1449.9894 1271.772 1452.6063 1276.9688 1457.6992 C 1280.984 1461.6342 1283.3508 1466.33 1284.0684 1471.7891 C 1284.868 1477.1645 1283.8014 1482.1034 1280.8652 1486.6055 C 1275.242 1495.6899 1271.1586 1501.5299 1268.6172 1504.123 L 1245.1309 1528.0879 L 1207.7383 1491.4434 L 1232.209 1466.4727 C 1242.3744 1456.1001 1250.89 1450.5903 1257.7578 1449.9414 C 1258.6163 1449.8603 1259.4685 1449.8296 1260.3125 1449.8496 z M 698.3125 1451.8496 C 704.22028 1451.9894 709.77195 1454.6063 714.96875 1459.6992 C 718.98395 1463.6342 721.35076 1468.33 722.06836 1473.7891 C 722.86796 1479.1645 721.80143 1484.1034 718.86523 1488.6055 C 713.24203 1497.6899 709.15859 1503.5299 706.61719 1506.123 L 683.13086 1530.0879 L 645.73828 1493.4434 L 670.20898 1468.4727 C 680.37438 1458.1001 688.89001 1452.5903 695.75781 1451.9414 C 696.61629 1451.8603 697.46853 1451.8296 698.3125 1451.8496 z M 1615.7676 1595.7148 C 1612.8034 1595.7376 1609.7649 1595.9434 1606.6523 1596.332 C 1585.7936 1598.8629 1563.3063 1612.4309 1539.1895 1637.0391 C 1520.979 1655.6208 1510.1034 1674.2532 1506.5625 1692.9355 C 1506.0464 1695.7612 1505.6653 1698.5246 1505.4219 1701.2266 C 1548.041 1669.6465 1587.8621 1634.4877 1624.4375 1596.1953 C 1621.6215 1595.8523 1618.7318 1595.6921 1615.7676 1595.7148 z M 1056.3477 1595.7383 C 1053.835 1595.8064 1051.2699 1596.0052 1048.6523 1596.332 C 1027.7936 1598.8629 1005.3063 1612.4309 981.18945 1637.0391 C 962.97895 1655.6208 952.1034 1674.2532 948.5625 1692.9355 C 944.1645 1717.0133 949.66541 1736.5979 965.06641 1751.6914 C 974.44101 1760.8787 985.18849 1766.489 997.30859 1768.5215 C 1006.1911 1770.0065 1016.704 1768.8245 1028.8477 1764.9727 C 1022.6953 1779.4548 1020.9238 1792.8979 1023.5352 1805.3027 C 1026.0628 1817.6253 1032.726 1829.0764 1043.5234 1839.6582 C 1054.572 1850.4862 1067.1983 1857.6112 1081.4043 1861.0312 C 1095.6102 1864.4515 1110.0606 1863.27 1124.7539 1857.4863 C 1139.447 1851.7028 1156.35 1839.059 1175.4629 1819.5566 C 1185.6346 1809.1777 1194.1455 1798.4026 1200.9941 1787.2285 C 1208.0086 1776.0526 1212.333 1765.2761 1213.9688 1754.9004 C 1215.6863 1744.441 1214.6196 1733.222 1210.7695 1721.2441 C 1206.9177 1709.1005 1200.3887 1698.5174 1191.1816 1689.4941 C 1181.6396 1680.1428 1170.5143 1674.081 1157.8066 1671.3086 C 1145.181 1668.4525 1131.6028 1669.6664 1117.0703 1674.9512 C 1119.4309 1662.4963 1119.6538 1651.8865 1117.7422 1643.1211 C 1115.1375 1631.3793 1109.6927 1621.4471 1101.4062 1613.3262 C 1088.9558 1601.1242 1073.9366 1595.2617 1056.3477 1595.7383 z M 496.34766 1595.7402 C 493.83496 1595.8083 491.26993 1596.0052 488.65234 1596.332 C 467.79364 1598.8629 445.30625 1612.4309 421.18945 1637.0391 C 405.23057 1653.3232 394.90353 1669.6464 390.21094 1686.0078 C 431.16376 1718.1024 474.88091 1746.8156 520.93555 1771.7227 C 519.33954 1767.923 518.45252 1764.0148 518.27344 1759.998 C 517.92704 1750.3052 520.87127 1742.2793 527.10547 1735.918 C 533.42177 1729.473 541.5528 1726.3666 551.5 1726.5977 C 561.5292 1726.7452 570.6016 1730.797 578.7207 1738.7539 C 586.756 1746.6288 591.03343 1755.577 591.54883 1765.5996 C 591.98063 1775.5401 589.20109 1783.5656 583.21289 1789.6758 C 579.87132 1793.0855 575.99767 1795.5714 571.58984 1797.1348 C 586.79728 1804.1861 602.22696 1810.8343 617.86523 1817.0664 C 626.98203 1807.4568 634.69163 1797.5116 640.99414 1787.2285 C 648.00864 1776.0526 652.33305 1765.2761 653.96875 1754.9004 C 655.68645 1744.441 654.61963 1733.222 650.76953 1721.2441 C 646.91773 1709.1005 640.38874 1698.5174 631.18164 1689.4941 C 621.63964 1680.1428 610.51434 1674.081 597.80664 1671.3086 C 585.18104 1668.4525 571.60281 1669.6664 557.07031 1674.9512 C 559.43091 1662.4963 559.65379 1651.8865 557.74219 1643.1211 C 555.13749 1631.3793 549.69265 1621.4471 541.40625 1613.3262 C 528.9557 1601.1242 513.93652 1595.2634 496.34766 1595.7402 z M 475.57812 1655.8848 C 483.36753 1655.8058 490.44339 1658.8829 496.80469 1665.1172 C 502.91489 1671.1053 506.04813 1677.8703 506.20703 1685.4102 C 506.36593 1692.9501 503.57598 1699.6486 497.83398 1705.5078 C 491.35358 1712.1201 484.21934 1715.5487 476.43164 1715.793 C 468.64234 1715.872 461.56638 1712.7929 455.20508 1706.5586 C 449.01108 1700.4885 445.87573 1693.6432 445.79883 1686.0195 C 445.72083 1678.2302 448.71691 1671.2369 454.78711 1665.043 C 460.77521 1658.9328 467.70513 1655.8814 475.57812 1655.8848 z M 1035.5781 1655.8848 C 1043.3675 1655.8058 1050.4434 1658.8829 1056.8047 1665.1172 C 1062.9149 1671.1053 1066.0481 1677.8703 1066.207 1685.4102 C 1066.3659 1692.9501 1063.576 1699.6486 1057.834 1705.5078 C 1051.3536 1712.1201 1044.2193 1715.5487 1036.4316 1715.793 C 1028.6423 1715.872 1021.5664 1712.7929 1015.2051 1706.5586 C 1009.0111 1700.4885 1005.8757 1693.6432 1005.7988 1686.0195 C 1005.7208 1678.2302 1008.7169 1671.2369 1014.7871 1665.043 C 1020.7752 1658.9328 1027.7051 1655.8814 1035.5781 1655.8848 z M 1111.5 1726.5977 C 1121.5292 1726.7452 1130.6016 1730.797 1138.7207 1738.7539 C 1146.756 1746.6288 1151.0334 1755.577 1151.5488 1765.5996 C 1151.9806 1775.5401 1149.2011 1783.5656 1143.2129 1789.6758 C 1136.9787 1796.0371 1128.8889 1799.1845 1118.9434 1799.1191 C 1108.9141 1798.9716 1099.8397 1794.9198 1091.7207 1786.9629 C 1083.1832 1778.5959 1078.7018 1769.6071 1078.2734 1759.998 C 1077.927 1750.3052 1080.8713 1742.2793 1087.1055 1735.918 C 1093.4218 1729.473 1101.5528 1726.3666 1111.5 1726.5977 z M 854.49414 1765.8516 L 812.90039 1808.291 C 819.13819 1825.1026 821.47254 1842.2027 819.90234 1859.5918 C 819.5557 1863.4304 818.96676 1867.4048 818.13672 1871.5156 C 863.69683 1878.4805 910.33946 1882.0938 957.80273 1882.0938 C 962.87111 1882.0938 967.92918 1882.0528 972.97852 1881.9707 L 854.49414 1765.8516 z " />
  <path
     id="path9"
     style="font-size:96px;line-height:0;font-family:'Arial Black';-inkscape-font-specification:'Arial Black, Normal';letter-spacing:0.52px;fill:#000000;fill-rule:evenodd;stroke-width:5.13442"
     d="m 982.16946,765.789 c -11.38302,24.16697 -27.14408,44.48179 -47.2832,60.94336 -20.13917,16.46156 -48.42207,30.55779 -84.84766,42.29101 v 87.73829 c 24.69237,-7.53028 45.18233,-15.41178 61.46875,-23.64258 16.46156,-8.23076 33.44863,-19.0012 50.96094,-32.31055 V 1157.4512 H 1070.6949 V 765.789 Z m 357.68944,0.48633 c -38.7596,0 -69.9241,7.85697 -93.4941,23.57031 -30.2045,20.42732 -45.3066,46.70308 -45.3066,78.82813 0,19.55438 5.2372,36.83854 15.7128,51.85351 7.6821,10.99936 19.9032,20.95126 36.6641,29.85547 -21.8241,8.55505 -37.9736,20.689 -48.4492,36.40234 -10.4755,15.53871 -15.7129,34.56931 -15.7129,57.09171 0,23.0463 5.5858,43.9104 16.7598,62.5918 11.1739,18.6814 27.4996,32.8232 48.9746,42.4258 21.4748,9.6026 52.5523,14.4043 93.2324,14.4043 21.6495,0 41.989,-2.182 61.0195,-6.5469 19.2052,-4.1902 35.1805,-10.8255 47.9258,-19.9043 12.9198,-9.0788 23.7449,-21.9117 32.4746,-38.498 8.9042,-16.7609 13.3555,-34.7421 13.3555,-53.9473 0,-19.9035 -5.1503,-38.0628 -15.4512,-54.47453 -10.1264,-16.4117 -25.577,-29.59312 -46.3535,-39.54492 15.7133,-10.47556 27.2354,-21.30068 34.5684,-32.47461 9.7771,-15.01497 14.666,-31.16456 14.666,-48.44922 0,-29.68075 -12.3083,-54.29719 -36.9258,-73.85156 -24.4429,-19.55438 -62.3299,-29.33203 -113.6602,-29.33203 z M 429.98,772.42963 V 1156.123 h 119.08594 v -155.7285 h 10.47071 c 10.81809,0 20.50097,2.9659 29.05078,8.8984 6.28148,4.5366 13.43656,14.3959 21.46289,29.5762 l 63.33789,117.2539 h 134.0039 l -57.31835,-111.2344 c -2.79177,-5.5835 -8.3747,-13.5237 -16.75,-23.8184 -8.2008,-10.2946 -14.48355,-17.0116 -18.84571,-20.1523 -6.45594,-4.71112 -16.74947,-9.42172 -30.88281,-14.13281 17.62305,-4.01318 31.49508,-9.07466 41.61523,-15.18164 15.87816,-9.59671 28.35254,-22.07106 37.42579,-37.42578 9.07324,-15.52918 13.61132,-33.93739 13.61132,-55.22461 0,-24.42796 -5.93382,-45.10419 -17.79882,-62.02929 -11.86502,-17.09958 -27.48175,-28.79079 -46.84961,-35.07227 -19.36791,-6.28147 -47.37174,-9.42187 -84.01368,-9.42187 z m 915.1172,58.79492 c 12.7452,0 23.2199,4.18986 31.4258,12.57031 8.2058,8.20583 12.3086,18.94189 12.3086,32.21094 0,12.74528 -3.9285,23.13475 -11.7852,31.16601 -7.8566,8.03127 -17.8957,12.04688 -30.1172,12.04688 -13.7928,0 -24.8793,-4.01561 -33.2597,-12.04688 -8.2059,-8.20587 -12.3086,-18.94385 -12.3086,-32.21289 0,-12.91986 4.0156,-23.39452 12.0469,-31.42578 8.2058,-8.20583 18.7695,-12.30859 31.6894,-12.30859 z m -796.03126,18.67578 h 52.08399 c 21.63619,0 36.38059,3.31486 44.23242,9.94531 7.85187,6.63045 11.77734,16.14081 11.77734,28.5293 0,8.3753 -2.52974,15.79014 -7.58984,22.24609 -4.88559,6.45598 -11.25364,10.47067 -19.10547,12.04102 -15.52923,3.4897 -25.99918,5.23437 -31.4082,5.23437 H 549.06594 Z M 1345.0972,982.0722 c 13.4436,0 25.2271,5.41158 35.3535,16.23633 10.301,10.82477 15.4512,24.70507 15.4512,41.64067 0,16.7609 -5.0631,30.6413 -15.1895,41.6405 -10.1264,10.8249 -21.5613,16.2364 -34.3066,16.2364 -13.2691,0 -25.0545,-5.3243 -35.3555,-15.9747 -10.301,-10.8246 -15.4511,-24.705 -15.4511,-41.6405 0,-17.8085 4.8888,-31.9503 14.666,-42.42581 9.9518,-10.47556 21.5629,-15.71289 34.832,-15.71289 z" />
  <path
     id="path8"
     style="font-size:96px;line-height:0;font-family:'Arial Black';-inkscape-font-specification:'Arial Black, Normal';letter-spacing:0.52px;fill:#ffffff;fill-rule:evenodd;stroke-width:5.13442"
     d="M 964.95508 750.71875 C 953.57206 774.88572 937.811 795.20054 917.67188 811.66211 C 897.53271 828.12367 869.24981 842.2199 832.82422 853.95312 L 832.82422 941.69141 C 857.51659 934.16113 878.00655 926.27963 894.29297 918.04883 C 910.75453 909.81807 927.7416 899.04763 945.25391 885.73828 L 945.25391 1142.3809 L 1053.4805 1142.3809 L 1053.4805 750.71875 L 964.95508 750.71875 z M 1322.6445 751.20508 C 1283.8849 751.20508 1252.7204 759.06205 1229.1504 774.77539 C 1198.9459 795.20271 1183.8438 821.47847 1183.8438 853.60352 C 1183.8438 873.1579 1189.081 890.44206 1199.5566 905.45703 C 1207.2387 916.45639 1219.4598 926.40829 1236.2207 935.3125 C 1214.3966 943.86755 1198.2471 956.0015 1187.7715 971.71484 C 1177.296 987.25357 1172.0586 1006.2842 1172.0586 1028.8066 C 1172.0586 1051.8529 1177.6444 1072.717 1188.8184 1091.3984 C 1199.9923 1110.0798 1216.318 1124.2216 1237.793 1133.8242 C 1259.2678 1143.4268 1290.3453 1148.2285 1331.0254 1148.2285 C 1352.6749 1148.2285 1373.0144 1146.0465 1392.0449 1141.6816 C 1411.2501 1137.4914 1427.2254 1130.8561 1439.9707 1121.7773 C 1452.8905 1112.6985 1463.7156 1099.8656 1472.4453 1083.2793 C 1481.3495 1066.5184 1485.8008 1048.5372 1485.8008 1029.332 C 1485.8008 1009.4285 1480.6505 991.26913 1470.3496 974.85742 C 1460.2232 958.44572 1444.7726 945.2643 1423.9961 935.3125 C 1439.7094 924.83694 1451.2315 914.01182 1458.5645 902.83789 C 1468.3416 887.82292 1473.2305 871.67333 1473.2305 854.38867 C 1473.2305 824.70792 1460.9222 800.09148 1436.3047 780.53711 C 1411.8618 760.98273 1373.9748 751.20508 1322.6445 751.20508 z M 412.76562 757.35938 L 412.76562 1141.0527 L 531.85156 1141.0527 L 531.85156 985.32422 L 542.32227 985.32422 C 553.14036 985.32422 562.82324 988.29015 571.37305 994.22266 C 577.65453 998.75925 584.80961 1008.6186 592.83594 1023.7988 L 656.17383 1141.0527 L 790.17773 1141.0527 L 732.85938 1029.8184 C 730.06761 1024.2348 724.48468 1016.2946 716.10938 1006 C 707.90858 995.70534 701.62583 988.98839 697.26367 985.84766 C 690.80773 981.13653 680.5142 976.42593 666.38086 971.71484 C 684.00391 967.70166 697.87594 962.64018 707.99609 956.5332 C 723.87425 946.93649 736.34863 934.46214 745.42188 919.10742 C 754.49512 903.57824 759.0332 885.17003 759.0332 863.88281 C 759.0332 839.45485 753.09938 818.77862 741.23438 801.85352 C 729.36936 784.75394 713.75263 773.06273 694.38477 766.78125 C 675.01686 760.49978 647.01303 757.35938 610.37109 757.35938 L 412.76562 757.35938 z M 1327.8828 816.1543 C 1340.628 816.1543 1351.1027 820.34416 1359.3086 828.72461 C 1367.5144 836.93044 1371.6172 847.6665 1371.6172 860.93555 C 1371.6172 873.68083 1367.6887 884.0703 1359.832 892.10156 C 1351.9754 900.13283 1341.9363 904.14844 1329.7148 904.14844 C 1315.922 904.14844 1304.8355 900.13283 1296.4551 892.10156 C 1288.2492 883.89569 1284.1465 873.15771 1284.1465 859.88867 C 1284.1465 846.96881 1288.1621 836.49415 1296.1934 828.46289 C 1304.3992 820.25706 1314.9629 816.1543 1327.8828 816.1543 z M 531.85156 834.83008 L 583.93555 834.83008 C 605.57174 834.83008 620.31614 838.14494 628.16797 844.77539 C 636.01984 851.40584 639.94531 860.9162 639.94531 873.30469 C 639.94531 881.67999 637.41557 889.09483 632.35547 895.55078 C 627.46988 902.00676 621.10183 906.02145 613.25 907.5918 C 597.72077 911.0815 587.25082 912.82617 581.8418 912.82617 L 531.85156 912.82617 L 531.85156 834.83008 z M 1327.8828 967.00195 C 1341.3264 967.00195 1353.1099 972.41353 1363.2363 983.23828 C 1373.5373 994.06302 1378.6875 1007.9434 1378.6875 1024.8789 C 1378.6875 1041.6398 1373.6244 1055.5202 1363.498 1066.5195 C 1353.3716 1077.3443 1341.9367 1082.7559 1329.1914 1082.7559 C 1315.9223 1082.7559 1304.1369 1077.4315 1293.8359 1066.7812 C 1283.5349 1055.9565 1278.3848 1042.0761 1278.3848 1025.1406 C 1278.3848 1007.3322 1283.2736 993.1904 1293.0508 982.71484 C 1303.0026 972.23928 1314.6137 967.00195 1327.8828 967.00195 z " />
</svg>
