<svg xmlns="http://www.w3.org/2000/svg" width="93.481" height="93.481" viewBox="0 0 24.734 24.734"><path d="M328.14 357.76h70.111v70.111H328.14Z" style="fill:#af3222;fill-opacity:1;fill-rule:evenodd;stroke:none" transform="matrix(.35278 0 0 -.35278 -115.76 150.943)"/><path d="M11.013 0h-3.84v-14.47q-2.104 1.967-4.96 2.91v-3.484q1.504-.492 3.266-1.858 1.763-1.38 2.419-3.211h3.115z" aria-label="1" style="font-weight:700;font-size:27.984px;font-family:Arial;fill:#fff" transform="matrix(.35278 0 0 .35278 4.008 16.062)"/><path d="M16.752-16.192v-3.566h13.131v2.787q-1.626 1.599-3.306 4.591-1.681 2.993-2.57 6.368-.874 3.361-.86 6.012h-3.703q.096-4.154 1.708-8.472 1.626-4.318 4.331-7.72z" aria-label="7" style="font-weight:700;font-size:27.984px;font-family:Arial;fill:#fff" transform="matrix(.35278 0 0 .35278 4.008 16.062)"/><path d="M37.535-2.883V-8.09h-5.247v-3.594h5.247v-5.206h3.498v5.206h5.26v3.594h-5.26v5.206z" aria-label="+" style="font-weight:700;font-size:27.984px;font-family:Arial;fill:#fff" transform="matrix(.35278 0 0 .35278 4.008 16.062)"/></svg>