<?xml version="1.0"?>
<svg viewBox="0 0 62 62" width="62" height="62" xmlns="http://www.w3.org/2000/svg" xmlns:svg="http://www.w3.org/2000/svg">
 <g class="layer">
  <title>Layer 1</title>
  <path d="m4.73,0.76c-0.16,0 -3.97,0.06 -3.97,3.97l0,52.87c0,0.16 0.06,3.97 3.97,3.97l52.89,0c0.16,0 3.96,-0.06 3.96,-3.97l0,-52.87c0,-0.16 -0.06,-3.97 -3.96,-3.97l-52.89,0zm52.89,61.57l-52.89,0c-4.68,0 -4.73,-4.68 -4.73,-4.73l0,-52.87c0,-4.68 4.68,-4.73 4.73,-4.73l52.89,0c4.67,0 4.73,4.68 4.73,4.73l0,52.87c0,4.68 -4.69,4.73 -4.73,4.73" fill="#65b460" id="svg_1"/>
  <path d="m11.9,11.89l0,38.54l38.54,0l0,-38.54l-38.54,0z" fill="#fff" id="svg_2"/>
  <path d="m14.45,47.88l33.45,0l0,-33.44l-33.45,0l0,33.44zm38.54,5.1l-43.64,0l0,-43.64l43.64,0l0,43.64z" fill="#65b460" id="svg_3"/>
  <path d="m31.29,40.77c3.59,0 6.52,-2.28 6.52,-6.45c0,-3.87 -2.28,-5.76 -6.26,-5.76c-1.28,0 -2.07,0.18 -2.96,0.47l-0.08,2.67c0.87,-0.23 1.63,-0.42 2.7,-0.42c1.84,0 3.12,0.95 3.12,3.31c0,1.94 -1.1,3.32 -2.86,3.32c-2.77,0 -3.61,-1.52 -3.61,-5.29c0,-4.56 1.2,-7.94 5.11,-7.94c1.04,0 2.02,0.13 2.77,0.32l0.76,-2.73c-0.83,-0.31 -2.14,-0.52 -3.51,-0.52c-5.19,0 -8.62,3.53 -8.62,10.71c0,6 2.49,8.31 6.92,8.31" id="svg_4"/>
 </g>
</svg>