<?xml version="1.0" encoding="UTF-8" standalone="no"?>
<!-- Created with Inkscape (http://www.inkscape.org/) -->

<svg
   version="1.1"
   id="svg1"
   width="175.77699"
   height="174.76892"
   viewBox="0 0 175.77699 174.76892"
   sodipodi:docname="GZyU3fpawAAP4z6 (1).jpeg.svg"
   inkscape:version="1.4.2 (ebf0e940d0, 2025-05-08)"
   xmlns:inkscape="http://www.inkscape.org/namespaces/inkscape"
   xmlns:sodipodi="http://sodipodi.sourceforge.net/DTD/sodipodi-0.dtd"
   xmlns="http://www.w3.org/2000/svg"
   xmlns:svg="http://www.w3.org/2000/svg">
  <defs
     id="defs1" />
  <sodipodi:namedview
     id="namedview1"
     pagecolor="#ffffff"
     bordercolor="#000000"
     borderopacity="0.25"
     inkscape:showpageshadow="2"
     inkscape:pageopacity="0.0"
     inkscape:pagecheckerboard="0"
     inkscape:deskcolor="#d1d1d1"
     inkscape:zoom="0.66861419"
     inkscape:cx="208.6405"
     inkscape:cy="351.47325"
     inkscape:window-width="1280"
     inkscape:window-height="730"
     inkscape:window-x="0"
     inkscape:window-y="0"
     inkscape:window-maximized="1"
     inkscape:current-layer="svg1">
    <inkscape:page
       x="0"
       y="0"
       width="175.77699"
       height="174.76892"
       id="page1"
       margin="0"
       bleed="0" />
  </sodipodi:namedview>
  <g
     id="g15"
     inkscape:label="C"
     transform="matrix(0.99994314,0,0,0.99994314,-69.250166,-1103.1003)">
    <path
       id="path2"
       style="fill:#f51f29;fill-rule:evenodd;stroke-width:4.37413"
       d="m 245.0411,1190.5525 a 87.893505,87.38948 0 0 1 -87.89349,87.3894 87.893505,87.38948 0 0 1 -87.893506,-87.3894 87.893505,87.38948 0 0 1 87.893506,-87.3895 87.893505,87.38948 0 0 1 87.89349,87.3895 z" />
    <path
       d="m 131.5951,1192.0104 q 0,-13.1923 8.90911,-22.1013 8.90909,-8.9091 23.21504,-8.9091 10.70805,0 18.16085,5.1397 l -4.71153,14.9058 q -5.48252,-4.4547 -12.59267,-4.4547 -6.76749,0 -10.96504,4.3689 -4.19756,4.369 -4.19756,11.0507 0,6.7675 4.19756,11.2221 4.19755,4.3689 10.96504,4.3689 7.11015,0 12.59267,-4.4546 l 4.71153,14.9057 q -7.4528,5.1397 -18.16085,5.1397 -14.30595,0 -23.21504,-8.909 -8.90911,-8.9948 -8.90911,-22.2728 z"
       id="text31"
       style="font-weight:900;font-size:40.1761px;line-height:0;font-family:Geomanist;-inkscape-font-specification:'Geomanist Heavy';letter-spacing:0.52px;fill:#ffffff;fill-rule:evenodd;stroke-width:6.60989"
       aria-label="C" />
  </g>
</svg>
